<?xml version="1.0" encoding="UTF-8" standalone="no"?>
<!DOCTYPE svg PUBLIC "-//W3C//DTD SVG 1.1//EN"
 "http://www.w3.org/Graphics/SVG/1.1/DTD/svg11.dtd">
<!-- Generated by graphviz version 2.38.0 (20140413.2041)
 -->
<!-- Title: %3 Pages: 1 -->
<svg width="103pt" height="301pt"
 viewBox="0.00 0.00 102.98 300.88" xmlns="http://www.w3.org/2000/svg" xmlns:xlink="http://www.w3.org/1999/xlink">
<g id="graph0" class="graph" transform="scale(1 1) rotate(0) translate(4 296.877)">
<title>%3</title>
<polygon fill="white" stroke="none" points="-4,4 -4,-296.877 98.9767,-296.877 98.9767,4 -4,4"/>
<!-- A -->
<g id="node1" class="node"><title>A</title>
<polygon fill="lightgray" stroke="black" points="23,-292.877 0,-292.877 0,-274.877 23,-274.877 23,-292.877"/>
<text text-anchor="middle" x="11.5" y="-281.677" font-family="Times,serif" font-size="9.00">A</text>
</g>
<!-- 707 -->
<g id="node4" class="node"><title>707</title>
<ellipse fill="white" stroke="black" cx="56.5" cy="-217.664" rx="21.4286" ry="21.4286"/>
<text text-anchor="middle" x="56.5" y="-215.464" font-family="Times,serif" font-size="9.00">707</text>
</g>
<!-- A&#45;&gt;707 -->
<g id="edge6" class="edge"><title>A&#45;&gt;707</title>
<path fill="none" stroke="green" stroke-width="1.1023" d="M17.1993,-274.745C22.6484,-266.969 31.152,-254.835 38.8575,-243.839"/>
<polygon fill="green" stroke="green" stroke-width="1.1023" points="41.9197,-245.568 44.7924,-235.37 36.1872,-241.551 41.9197,-245.568"/>
</g>
<!-- 1284 -->
<g id="node5" class="node"><title>1284</title>
<ellipse fill="white" stroke="black" cx="31.5" cy="-135.702" rx="25" ry="25"/>
<text text-anchor="middle" x="31.5" y="-133.502" font-family="Times,serif" font-size="9.00">1284</text>
</g>
<!-- A&#45;&gt;1284 -->
<g id="edge4" class="edge"><title>A&#45;&gt;1284</title>
<path fill="none" stroke="red" stroke-width="0.690403" d="M12.6326,-274.599C15.321,-254.95 22.2111,-204.592 26.8775,-170.487"/>
<polygon fill="red" stroke="red" stroke-width="0.690403" points="30.3592,-170.858 28.2472,-160.476 23.4238,-169.909 30.3592,-170.858"/>
</g>
<!-- B -->
<g id="node2" class="node"><title>B</title>
<polygon fill="lightgray" stroke="black" points="92,-292.877 69,-292.877 69,-274.877 92,-274.877 92,-292.877"/>
<text text-anchor="middle" x="80.5" y="-281.677" font-family="Times,serif" font-size="9.00">B</text>
</g>
<!-- B&#45;&gt;707 -->
<g id="edge3" class="edge"><title>B&#45;&gt;707</title>
<path fill="none" stroke="red" stroke-width="0.368602" d="M77.4604,-274.745C74.8413,-267.737 70.8992,-257.19 67.138,-247.126"/>
<polygon fill="red" stroke="red" stroke-width="0.368602" points="70.4159,-245.899 63.6363,-237.758 63.8589,-248.35 70.4159,-245.899"/>
</g>
<!-- B&#45;&gt;1284 -->
<g id="edge2" class="edge"><title>B&#45;&gt;1284</title>
<path fill="none" stroke="green" stroke-width="0.761187" d="M83.4057,-274.417C88.3736,-258.517 96.9971,-223.354 86.5,-196.451 80.7678,-181.76 69.5451,-168.5 58.7241,-158.226"/>
<polygon fill="green" stroke="green" stroke-width="0.761187" points="60.7802,-155.369 50.9999,-151.295 56.105,-160.578 60.7802,-155.369"/>
</g>
<!-- A XOR B -->
<g id="node3" class="node"><title>A XOR B</title>
<ellipse fill="lightblue" stroke="black" cx="57.5" cy="-37.4767" rx="37.4533" ry="37.4533"/>
<text text-anchor="middle" x="57.5" y="-35.2767" font-family="Times,serif" font-size="9.00">A XOR B</text>
</g>
<!-- 707&#45;&gt;A XOR B -->
<g id="edge1" class="edge"><title>707&#45;&gt;A XOR B</title>
<path fill="none" stroke="green" stroke-width="0.415912" d="M60.483,-196.724C62.4207,-186.019 64.536,-172.569 65.5,-160.451 67.4846,-135.501 65.9427,-107.652 63.7024,-84.8708"/>
<polygon fill="green" stroke="green" stroke-width="0.415912" points="67.1684,-84.3642 62.6341,-74.7887 60.2074,-85.1019 67.1684,-84.3642"/>
</g>
<!-- 707&#45;&gt;1284 -->
<g id="edge5" class="edge"><title>707&#45;&gt;1284</title>
<path fill="none" stroke="red" stroke-width="0.122276" d="M50.4482,-197.307C47.8098,-188.869 44.6436,-178.742 41.6615,-169.203"/>
<polygon fill="red" stroke="red" stroke-width="0.122276" points="44.9751,-168.072 38.6504,-159.572 38.294,-170.161 44.9751,-168.072"/>
</g>
<!-- 1284&#45;&gt;A XOR B -->
<g id="edge7" class="edge"><title>1284&#45;&gt;A XOR B</title>
<path fill="none" stroke="green" stroke-width="0.338978" d="M37.7939,-111.409C40.047,-103.07 42.6703,-93.3611 45.2537,-83.7998"/>
<polygon fill="green" stroke="green" stroke-width="0.338978" points="48.6847,-84.5198 47.9143,-73.953 41.927,-82.6938 48.6847,-84.5198"/>
</g>
</g>
</svg>
