<?xml version="1.0" encoding="utf-8" standalone="no"?>
<!DOCTYPE svg PUBLIC "-//W3C//DTD SVG 1.1//EN"
  "http://www.w3.org/Graphics/SVG/1.1/DTD/svg11.dtd">
<!-- Created with matplotlib (http://matplotlib.org/) -->
<svg height="288pt" version="1.1" viewBox="0 0 432 288" width="432pt" xmlns="http://www.w3.org/2000/svg" xmlns:xlink="http://www.w3.org/1999/xlink">
 <defs>
  <style type="text/css">
*{stroke-linecap:butt;stroke-linejoin:round;}
  </style>
 </defs>
 <g id="figure_1">
  <g id="patch_1">
   <path d="M 0 288 
L 432 288 
L 432 0 
L 0 0 
z
" style="fill:#ffffff;"/>
  </g>
  <g id="axes_1">
   <g id="patch_2">
    <path d="M 54 252 
L 388.8 252 
L 388.8 34.56 
L 54 34.56 
z
" style="fill:#ffffff;"/>
   </g>
   <g id="PolyCollection_1">
    <path clip-path="url(#p3984cdb2f1)" d="M 69.218182 47.639098 
L 69.218182 252 
L 72.42201 252 
L 75.625837 252 
L 78.829665 252 
L 82.033493 252 
L 85.237321 252 
L 88.441148 252 
L 91.644976 252 
L 94.848804 252 
L 98.052632 252 
L 101.256459 252 
L 104.460287 252 
L 107.664115 252 
L 110.867943 252 
L 114.07177 252 
L 117.275598 252 
L 120.479426 252 
L 123.683254 252 
L 126.887081 252 
L 130.090909 252 
L 133.294737 252 
L 136.498565 252 
L 139.702392 252 
L 142.90622 252 
L 146.110048 252 
L 149.313876 252 
L 152.517703 252 
L 155.721531 252 
L 158.925359 252 
L 162.129187 252 
L 165.333014 252 
L 168.536842 252 
L 171.74067 252 
L 174.944498 252 
L 178.148325 252 
L 181.352153 252 
L 184.555981 252 
L 187.759809 252 
L 190.963636 252 
L 194.167464 252 
L 197.371292 252 
L 200.57512 252 
L 203.778947 252 
L 206.982775 252 
L 210.186603 252 
L 213.390431 252 
L 216.594258 252 
L 219.798086 252 
L 223.001914 252 
L 226.205742 252 
L 229.409569 252 
L 232.613397 252 
L 235.817225 252 
L 239.021053 252 
L 242.22488 252 
L 245.428708 252 
L 248.632536 252 
L 251.836364 252 
L 255.040191 252 
L 258.244019 252 
L 261.447847 252 
L 264.651675 252 
L 267.855502 252 
L 271.05933 252 
L 274.263158 252 
L 277.466986 252 
L 280.670813 252 
L 283.874641 252 
L 287.078469 252 
L 290.282297 252 
L 293.486124 252 
L 296.689952 252 
L 299.89378 252 
L 303.097608 252 
L 306.301435 252 
L 309.505263 252 
L 312.709091 252 
L 315.912919 252 
L 319.116746 252 
L 322.320574 252 
L 325.524402 252 
L 328.72823 252 
L 331.932057 252 
L 335.135885 252 
L 338.339713 252 
L 341.543541 252 
L 344.747368 252 
L 347.951196 252 
L 351.155024 252 
L 354.358852 252 
L 357.562679 252 
L 360.766507 252 
L 363.970335 252 
L 367.174163 252 
L 370.37799 252 
L 373.581818 252 
L 373.581818 252 
L 373.581818 252 
L 370.37799 252 
L 367.174163 252 
L 363.970335 252 
L 360.766507 252 
L 357.562679 252 
L 354.358852 252 
L 351.155024 252 
L 347.951196 252 
L 344.747368 252 
L 341.543541 252 
L 338.339713 252 
L 335.135885 252 
L 331.932057 252 
L 328.72823 252 
L 325.524402 252 
L 322.320574 252 
L 319.116746 252 
L 315.912919 252 
L 312.709091 252 
L 309.505263 252 
L 306.301435 252 
L 303.097608 252 
L 299.89378 252 
L 296.689952 252 
L 293.486124 252 
L 290.282297 252 
L 287.078469 252 
L 283.874641 252 
L 280.670813 252 
L 277.466986 252 
L 274.263158 252 
L 271.05933 252 
L 267.855502 252 
L 264.651675 252 
L 261.447847 252 
L 258.244019 252 
L 255.040191 252 
L 251.836364 181.154887 
L 248.632536 204.315789 
L 245.428708 189.329323 
L 242.22488 200.228571 
L 239.021053 220.664662 
L 235.817225 209.765414 
L 232.613397 220.664662 
L 229.409569 208.403008 
L 226.205742 223.389474 
L 223.001914 238.37594 
L 219.798086 238.37594 
L 216.594258 207.040602 
L 213.390431 224.75188 
L 210.186603 227.476692 
L 206.982775 219.302256 
L 203.778947 166.168421 
L 200.57512 147.094737 
L 197.371292 171.618045 
L 194.167464 182.517293 
L 190.963636 211.12782 
L 187.759809 211.12782 
L 184.555981 235.651128 
L 181.352153 211.12782 
L 178.148325 208.403008 
L 174.944498 200.228571 
L 171.74067 217.93985 
L 168.536842 194.778947 
L 165.333014 211.12782 
L 162.129187 222.027068 
L 158.925359 224.75188 
L 155.721531 228.839098 
L 152.517703 220.664662 
L 149.313876 213.852632 
L 146.110048 217.93985 
L 142.90622 215.215038 
L 139.702392 216.577444 
L 136.498565 227.476692 
L 133.294737 230.201504 
L 130.090909 223.389474 
L 126.887081 220.664662 
L 123.683254 222.027068 
L 120.479426 216.577444 
L 117.275598 196.141353 
L 114.07177 204.315789 
L 110.867943 179.792481 
L 107.664115 137.557895 
L 104.460287 152.544361 
L 101.256459 149.819549 
L 98.052632 143.007519 
L 94.848804 138.920301 
L 91.644976 121.209023 
L 88.441148 55.813534 
L 85.237321 47.639098 
L 82.033493 47.639098 
L 78.829665 47.639098 
L 75.625837 47.639098 
L 72.42201 47.639098 
L 69.218182 47.639098 
z
" style="fill:#1f77b4;"/>
   </g>
   <g id="PolyCollection_2">
    <path clip-path="url(#p3984cdb2f1)" d="M 69.218182 47.639098 
L 69.218182 47.639098 
L 72.42201 47.639098 
L 75.625837 47.639098 
L 78.829665 47.639098 
L 82.033493 47.639098 
L 85.237321 47.639098 
L 88.441148 55.813534 
L 91.644976 121.209023 
L 94.848804 138.920301 
L 98.052632 143.007519 
L 101.256459 149.819549 
L 104.460287 152.544361 
L 107.664115 137.557895 
L 110.867943 179.792481 
L 114.07177 204.315789 
L 117.275598 196.141353 
L 120.479426 216.577444 
L 123.683254 222.027068 
L 126.887081 220.664662 
L 130.090909 223.389474 
L 133.294737 230.201504 
L 136.498565 227.476692 
L 139.702392 216.577444 
L 142.90622 215.215038 
L 146.110048 217.93985 
L 149.313876 213.852632 
L 152.517703 220.664662 
L 155.721531 228.839098 
L 158.925359 224.75188 
L 162.129187 222.027068 
L 165.333014 211.12782 
L 168.536842 194.778947 
L 171.74067 217.93985 
L 174.944498 200.228571 
L 178.148325 208.403008 
L 181.352153 211.12782 
L 184.555981 235.651128 
L 187.759809 211.12782 
L 190.963636 211.12782 
L 194.167464 182.517293 
L 197.371292 171.618045 
L 200.57512 147.094737 
L 203.778947 166.168421 
L 206.982775 219.302256 
L 210.186603 227.476692 
L 213.390431 224.75188 
L 216.594258 207.040602 
L 219.798086 238.37594 
L 223.001914 238.37594 
L 226.205742 223.389474 
L 229.409569 208.403008 
L 232.613397 220.664662 
L 235.817225 209.765414 
L 239.021053 220.664662 
L 242.22488 200.228571 
L 245.428708 189.329323 
L 248.632536 204.315789 
L 251.836364 181.154887 
L 255.040191 252 
L 258.244019 252 
L 261.447847 252 
L 264.651675 252 
L 267.855502 252 
L 271.05933 252 
L 274.263158 252 
L 277.466986 252 
L 280.670813 252 
L 283.874641 252 
L 287.078469 252 
L 290.282297 252 
L 293.486124 252 
L 296.689952 252 
L 299.89378 252 
L 303.097608 252 
L 306.301435 252 
L 309.505263 252 
L 312.709091 252 
L 315.912919 252 
L 319.116746 252 
L 322.320574 252 
L 325.524402 252 
L 328.72823 252 
L 331.932057 252 
L 335.135885 252 
L 338.339713 252 
L 341.543541 252 
L 344.747368 252 
L 347.951196 252 
L 351.155024 252 
L 354.358852 252 
L 357.562679 252 
L 360.766507 252 
L 363.970335 252 
L 367.174163 252 
L 370.37799 252 
L 373.581818 252 
L 373.581818 252 
L 373.581818 252 
L 370.37799 252 
L 367.174163 252 
L 363.970335 252 
L 360.766507 252 
L 357.562679 252 
L 354.358852 252 
L 351.155024 252 
L 347.951196 252 
L 344.747368 252 
L 341.543541 252 
L 338.339713 252 
L 335.135885 252 
L 331.932057 252 
L 328.72823 252 
L 325.524402 252 
L 322.320574 252 
L 319.116746 252 
L 315.912919 252 
L 312.709091 252 
L 309.505263 252 
L 306.301435 252 
L 303.097608 252 
L 299.89378 252 
L 296.689952 252 
L 293.486124 252 
L 290.282297 252 
L 287.078469 252 
L 283.874641 252 
L 280.670813 252 
L 277.466986 252 
L 274.263158 252 
L 271.05933 252 
L 267.855502 252 
L 264.651675 252 
L 261.447847 252 
L 258.244019 252 
L 255.040191 252 
L 251.836364 181.154887 
L 248.632536 204.315789 
L 245.428708 189.329323 
L 242.22488 200.228571 
L 239.021053 220.664662 
L 235.817225 209.765414 
L 232.613397 220.664662 
L 229.409569 208.403008 
L 226.205742 223.389474 
L 223.001914 238.37594 
L 219.798086 238.37594 
L 216.594258 207.040602 
L 213.390431 224.75188 
L 210.186603 227.476692 
L 206.982775 219.302256 
L 203.778947 166.168421 
L 200.57512 147.094737 
L 197.371292 171.618045 
L 194.167464 182.517293 
L 190.963636 211.12782 
L 187.759809 211.12782 
L 184.555981 235.651128 
L 181.352153 211.12782 
L 178.148325 208.403008 
L 174.944498 200.228571 
L 171.74067 178.430075 
L 168.536842 147.094737 
L 165.333014 157.993985 
L 162.129187 175.705263 
L 158.925359 186.604511 
L 155.721531 175.705263 
L 152.517703 185.242105 
L 149.313876 172.980451 
L 146.110048 183.879699 
L 142.90622 174.342857 
L 139.702392 168.893233 
L 136.498565 182.517293 
L 133.294737 186.604511 
L 130.090909 183.879699 
L 126.887081 171.618045 
L 123.683254 164.806015 
L 120.479426 159.356391 
L 117.275598 138.920301 
L 114.07177 113.034586 
L 110.867943 69.437594 
L 107.664115 47.639098 
L 104.460287 47.639098 
L 101.256459 47.639098 
L 98.052632 47.639098 
L 94.848804 47.639098 
L 91.644976 47.639098 
L 88.441148 47.639098 
L 85.237321 47.639098 
L 82.033493 47.639098 
L 78.829665 47.639098 
L 75.625837 47.639098 
L 72.42201 47.639098 
L 69.218182 47.639098 
z
" style="fill:#ff7f0e;"/>
   </g>
   <g id="PolyCollection_3">
    <path clip-path="url(#p3984cdb2f1)" d="M 69.218182 47.639098 
L 69.218182 47.639098 
L 72.42201 47.639098 
L 75.625837 47.639098 
L 78.829665 47.639098 
L 82.033493 47.639098 
L 85.237321 47.639098 
L 88.441148 47.639098 
L 91.644976 47.639098 
L 94.848804 47.639098 
L 98.052632 47.639098 
L 101.256459 47.639098 
L 104.460287 47.639098 
L 107.664115 47.639098 
L 110.867943 69.437594 
L 114.07177 113.034586 
L 117.275598 138.920301 
L 120.479426 159.356391 
L 123.683254 164.806015 
L 126.887081 171.618045 
L 130.090909 183.879699 
L 133.294737 186.604511 
L 136.498565 182.517293 
L 139.702392 168.893233 
L 142.90622 174.342857 
L 146.110048 183.879699 
L 149.313876 172.980451 
L 152.517703 185.242105 
L 155.721531 175.705263 
L 158.925359 186.604511 
L 162.129187 175.705263 
L 165.333014 157.993985 
L 168.536842 147.094737 
L 171.74067 178.430075 
L 174.944498 200.228571 
L 178.148325 208.403008 
L 181.352153 211.12782 
L 184.555981 235.651128 
L 187.759809 211.12782 
L 190.963636 211.12782 
L 194.167464 182.517293 
L 197.371292 171.618045 
L 200.57512 147.094737 
L 203.778947 166.168421 
L 206.982775 219.302256 
L 210.186603 227.476692 
L 213.390431 224.75188 
L 216.594258 207.040602 
L 219.798086 238.37594 
L 223.001914 238.37594 
L 226.205742 223.389474 
L 229.409569 208.403008 
L 232.613397 220.664662 
L 235.817225 209.765414 
L 239.021053 220.664662 
L 242.22488 200.228571 
L 245.428708 189.329323 
L 248.632536 204.315789 
L 251.836364 181.154887 
L 255.040191 252 
L 258.244019 252 
L 261.447847 252 
L 264.651675 252 
L 267.855502 252 
L 271.05933 252 
L 274.263158 252 
L 277.466986 252 
L 280.670813 252 
L 283.874641 252 
L 287.078469 252 
L 290.282297 252 
L 293.486124 252 
L 296.689952 252 
L 299.89378 252 
L 303.097608 252 
L 306.301435 252 
L 309.505263 252 
L 312.709091 252 
L 315.912919 252 
L 319.116746 252 
L 322.320574 252 
L 325.524402 252 
L 328.72823 252 
L 331.932057 252 
L 335.135885 252 
L 338.339713 252 
L 341.543541 252 
L 344.747368 252 
L 347.951196 252 
L 351.155024 252 
L 354.358852 252 
L 357.562679 252 
L 360.766507 252 
L 363.970335 252 
L 367.174163 252 
L 370.37799 252 
L 373.581818 252 
L 373.581818 252 
L 373.581818 252 
L 370.37799 252 
L 367.174163 252 
L 363.970335 252 
L 360.766507 252 
L 357.562679 252 
L 354.358852 252 
L 351.155024 252 
L 347.951196 252 
L 344.747368 252 
L 341.543541 252 
L 338.339713 252 
L 335.135885 252 
L 331.932057 252 
L 328.72823 252 
L 325.524402 252 
L 322.320574 252 
L 319.116746 252 
L 315.912919 252 
L 312.709091 252 
L 309.505263 252 
L 306.301435 252 
L 303.097608 252 
L 299.89378 252 
L 296.689952 252 
L 293.486124 252 
L 290.282297 252 
L 287.078469 252 
L 283.874641 252 
L 280.670813 252 
L 277.466986 252 
L 274.263158 252 
L 271.05933 252 
L 267.855502 252 
L 264.651675 252 
L 261.447847 252 
L 258.244019 252 
L 255.040191 252 
L 251.836364 181.154887 
L 248.632536 148.457143 
L 245.428708 148.457143 
L 242.22488 156.631579 
L 239.021053 151.181955 
L 235.817225 155.269173 
L 232.613397 178.430075 
L 229.409569 156.631579 
L 226.205742 175.705263 
L 223.001914 193.416541 
L 219.798086 189.329323 
L 216.594258 151.181955 
L 213.390431 183.879699 
L 210.186603 178.430075 
L 206.982775 167.530827 
L 203.778947 129.383459 
L 200.57512 128.021053 
L 197.371292 160.718797 
L 194.167464 140.282707 
L 190.963636 152.544361 
L 187.759809 145.732331 
L 184.555981 162.081203 
L 181.352153 163.443609 
L 178.148325 171.618045 
L 174.944498 168.893233 
L 171.74067 138.920301 
L 168.536842 121.209023 
L 165.333014 119.846617 
L 162.129187 125.296241 
L 158.925359 148.457143 
L 155.721531 141.645113 
L 152.517703 140.282707 
L 149.313876 129.383459 
L 146.110048 149.819549 
L 142.90622 149.819549 
L 139.702392 156.631579 
L 136.498565 171.618045 
L 133.294737 107.584962 
L 130.090909 88.511278 
L 126.887081 114.396992 
L 123.683254 119.846617 
L 120.479426 89.873684 
L 117.275598 80.336842 
L 114.07177 54.451128 
L 110.867943 47.639098 
L 107.664115 47.639098 
L 104.460287 47.639098 
L 101.256459 47.639098 
L 98.052632 47.639098 
L 94.848804 47.639098 
L 91.644976 47.639098 
L 88.441148 47.639098 
L 85.237321 47.639098 
L 82.033493 47.639098 
L 78.829665 47.639098 
L 75.625837 47.639098 
L 72.42201 47.639098 
L 69.218182 47.639098 
z
" style="fill:#2ca02c;"/>
   </g>
   <g id="PolyCollection_4">
    <path clip-path="url(#p3984cdb2f1)" d="M 69.218182 47.639098 
L 69.218182 47.639098 
L 72.42201 47.639098 
L 75.625837 47.639098 
L 78.829665 47.639098 
L 82.033493 47.639098 
L 85.237321 47.639098 
L 88.441148 47.639098 
L 91.644976 47.639098 
L 94.848804 47.639098 
L 98.052632 47.639098 
L 101.256459 47.639098 
L 104.460287 47.639098 
L 107.664115 47.639098 
L 110.867943 47.639098 
L 114.07177 54.451128 
L 117.275598 80.336842 
L 120.479426 89.873684 
L 123.683254 119.846617 
L 126.887081 114.396992 
L 130.090909 88.511278 
L 133.294737 107.584962 
L 136.498565 171.618045 
L 139.702392 156.631579 
L 142.90622 149.819549 
L 146.110048 149.819549 
L 149.313876 129.383459 
L 152.517703 140.282707 
L 155.721531 141.645113 
L 158.925359 148.457143 
L 162.129187 125.296241 
L 165.333014 119.846617 
L 168.536842 121.209023 
L 171.74067 138.920301 
L 174.944498 168.893233 
L 178.148325 171.618045 
L 181.352153 163.443609 
L 184.555981 162.081203 
L 187.759809 145.732331 
L 190.963636 152.544361 
L 194.167464 140.282707 
L 197.371292 160.718797 
L 200.57512 128.021053 
L 203.778947 129.383459 
L 206.982775 167.530827 
L 210.186603 178.430075 
L 213.390431 183.879699 
L 216.594258 151.181955 
L 219.798086 189.329323 
L 223.001914 193.416541 
L 226.205742 175.705263 
L 229.409569 156.631579 
L 232.613397 178.430075 
L 235.817225 155.269173 
L 239.021053 151.181955 
L 242.22488 156.631579 
L 245.428708 148.457143 
L 248.632536 148.457143 
L 251.836364 181.154887 
L 255.040191 252 
L 258.244019 252 
L 261.447847 252 
L 264.651675 252 
L 267.855502 252 
L 271.05933 252 
L 274.263158 252 
L 277.466986 252 
L 280.670813 252 
L 283.874641 252 
L 287.078469 252 
L 290.282297 252 
L 293.486124 252 
L 296.689952 252 
L 299.89378 252 
L 303.097608 252 
L 306.301435 252 
L 309.505263 252 
L 312.709091 252 
L 315.912919 252 
L 319.116746 252 
L 322.320574 252 
L 325.524402 252 
L 328.72823 252 
L 331.932057 252 
L 335.135885 252 
L 338.339713 252 
L 341.543541 252 
L 344.747368 252 
L 347.951196 252 
L 351.155024 252 
L 354.358852 252 
L 357.562679 252 
L 360.766507 252 
L 363.970335 252 
L 367.174163 252 
L 370.37799 252 
L 373.581818 252 
L 373.581818 252 
L 373.581818 252 
L 370.37799 252 
L 367.174163 252 
L 363.970335 252 
L 360.766507 252 
L 357.562679 252 
L 354.358852 252 
L 351.155024 252 
L 347.951196 252 
L 344.747368 252 
L 341.543541 252 
L 338.339713 252 
L 335.135885 252 
L 331.932057 252 
L 328.72823 252 
L 325.524402 252 
L 322.320574 252 
L 319.116746 252 
L 315.912919 252 
L 312.709091 252 
L 309.505263 252 
L 306.301435 252 
L 303.097608 252 
L 299.89378 252 
L 296.689952 252 
L 293.486124 252 
L 290.282297 252 
L 287.078469 252 
L 283.874641 252 
L 280.670813 252 
L 277.466986 252 
L 274.263158 252 
L 271.05933 252 
L 267.855502 252 
L 264.651675 252 
L 261.447847 252 
L 258.244019 252 
L 255.040191 252 
L 251.836364 181.154887 
L 248.632536 148.457143 
L 245.428708 148.457143 
L 242.22488 156.631579 
L 239.021053 151.181955 
L 235.817225 155.269173 
L 232.613397 136.195489 
L 229.409569 136.195489 
L 226.205742 148.457143 
L 223.001914 148.457143 
L 219.798086 148.457143 
L 216.594258 136.195489 
L 213.390431 156.631579 
L 210.186603 152.544361 
L 206.982775 134.833083 
L 203.778947 106.222556 
L 200.57512 111.67218 
L 197.371292 110.309774 
L 194.167464 110.309774 
L 190.963636 107.584962 
L 187.759809 103.497744 
L 184.555981 107.584962 
L 181.352153 111.67218 
L 178.148325 110.309774 
L 174.944498 126.658647 
L 171.74067 93.960902 
L 168.536842 63.98797 
L 165.333014 47.639098 
L 162.129187 49.001504 
L 158.925359 47.639098 
L 155.721531 47.639098 
L 152.517703 47.639098 
L 149.313876 46.276692 
L 146.110048 47.639098 
L 142.90622 49.001504 
L 139.702392 49.001504 
L 136.498565 49.001504 
L 133.294737 49.001504 
L 130.090909 47.639098 
L 126.887081 49.001504 
L 123.683254 47.639098 
L 120.479426 49.001504 
L 117.275598 47.639098 
L 114.07177 47.639098 
L 110.867943 47.639098 
L 107.664115 47.639098 
L 104.460287 47.639098 
L 101.256459 47.639098 
L 98.052632 47.639098 
L 94.848804 47.639098 
L 91.644976 47.639098 
L 88.441148 47.639098 
L 85.237321 47.639098 
L 82.033493 47.639098 
L 78.829665 47.639098 
L 75.625837 47.639098 
L 72.42201 47.639098 
L 69.218182 47.639098 
z
" style="fill:#d62728;"/>
   </g>
   <g id="PolyCollection_5">
    <path clip-path="url(#p3984cdb2f1)" d="M 69.218182 47.639098 
L 69.218182 47.639098 
L 72.42201 47.639098 
L 75.625837 47.639098 
L 78.829665 47.639098 
L 82.033493 47.639098 
L 85.237321 47.639098 
L 88.441148 47.639098 
L 91.644976 47.639098 
L 94.848804 47.639098 
L 98.052632 47.639098 
L 101.256459 47.639098 
L 104.460287 47.639098 
L 107.664115 47.639098 
L 110.867943 47.639098 
L 114.07177 47.639098 
L 117.275598 47.639098 
L 120.479426 49.001504 
L 123.683254 47.639098 
L 126.887081 49.001504 
L 130.090909 47.639098 
L 133.294737 49.001504 
L 136.498565 49.001504 
L 139.702392 49.001504 
L 142.90622 49.001504 
L 146.110048 47.639098 
L 149.313876 46.276692 
L 152.517703 47.639098 
L 155.721531 47.639098 
L 158.925359 47.639098 
L 162.129187 49.001504 
L 165.333014 47.639098 
L 168.536842 63.98797 
L 171.74067 93.960902 
L 174.944498 126.658647 
L 178.148325 110.309774 
L 181.352153 111.67218 
L 184.555981 107.584962 
L 187.759809 103.497744 
L 190.963636 107.584962 
L 194.167464 110.309774 
L 197.371292 110.309774 
L 200.57512 111.67218 
L 203.778947 106.222556 
L 206.982775 134.833083 
L 210.186603 152.544361 
L 213.390431 156.631579 
L 216.594258 136.195489 
L 219.798086 148.457143 
L 223.001914 148.457143 
L 226.205742 148.457143 
L 229.409569 136.195489 
L 232.613397 136.195489 
L 235.817225 155.269173 
L 239.021053 151.181955 
L 242.22488 156.631579 
L 245.428708 148.457143 
L 248.632536 148.457143 
L 251.836364 181.154887 
L 255.040191 252 
L 258.244019 252 
L 261.447847 252 
L 264.651675 252 
L 267.855502 252 
L 271.05933 252 
L 274.263158 252 
L 277.466986 252 
L 280.670813 252 
L 283.874641 252 
L 287.078469 252 
L 290.282297 252 
L 293.486124 252 
L 296.689952 252 
L 299.89378 252 
L 303.097608 252 
L 306.301435 252 
L 309.505263 252 
L 312.709091 252 
L 315.912919 252 
L 319.116746 252 
L 322.320574 252 
L 325.524402 252 
L 328.72823 252 
L 331.932057 252 
L 335.135885 252 
L 338.339713 252 
L 341.543541 252 
L 344.747368 252 
L 347.951196 252 
L 351.155024 252 
L 354.358852 252 
L 357.562679 252 
L 360.766507 252 
L 363.970335 252 
L 367.174163 252 
L 370.37799 252 
L 373.581818 252 
L 373.581818 205.678195 
L 373.581818 205.678195 
L 370.37799 208.403008 
L 367.174163 209.765414 
L 363.970335 207.040602 
L 360.766507 198.866165 
L 357.562679 200.228571 
L 354.358852 207.040602 
L 351.155024 201.590977 
L 347.951196 198.866165 
L 344.747368 198.866165 
L 341.543541 204.315789 
L 338.339713 211.12782 
L 335.135885 205.678195 
L 331.932057 204.315789 
L 328.72823 204.315789 
L 325.524402 202.953383 
L 322.320574 197.503759 
L 319.116746 198.866165 
L 315.912919 201.590977 
L 312.709091 194.778947 
L 309.505263 197.503759 
L 306.301435 197.503759 
L 303.097608 201.590977 
L 299.89378 196.141353 
L 296.689952 187.966917 
L 293.486124 193.416541 
L 290.282297 196.141353 
L 287.078469 194.778947 
L 283.874641 190.691729 
L 280.670813 193.416541 
L 277.466986 193.416541 
L 274.263158 192.054135 
L 271.05933 183.879699 
L 267.855502 170.255639 
L 264.651675 163.443609 
L 261.447847 160.718797 
L 258.244019 149.819549 
L 255.040191 143.007519 
L 251.836364 119.846617 
L 248.632536 106.222556 
L 245.428708 99.410526 
L 242.22488 103.497744 
L 239.021053 99.410526 
L 235.817225 96.685714 
L 232.613397 91.23609 
L 229.409569 88.511278 
L 226.205742 96.685714 
L 223.001914 96.685714 
L 219.798086 98.04812 
L 216.594258 89.873684 
L 213.390431 110.309774 
L 210.186603 93.960902 
L 206.982775 58.538346 
L 203.778947 47.639098 
L 200.57512 49.001504 
L 197.371292 47.639098 
L 194.167464 47.639098 
L 190.963636 46.276692 
L 187.759809 47.639098 
L 184.555981 47.639098 
L 181.352153 47.639098 
L 178.148325 46.276692 
L 174.944498 47.639098 
L 171.74067 47.639098 
L 168.536842 47.639098 
L 165.333014 47.639098 
L 162.129187 49.001504 
L 158.925359 47.639098 
L 155.721531 47.639098 
L 152.517703 47.639098 
L 149.313876 46.276692 
L 146.110048 47.639098 
L 142.90622 49.001504 
L 139.702392 49.001504 
L 136.498565 49.001504 
L 133.294737 49.001504 
L 130.090909 47.639098 
L 126.887081 49.001504 
L 123.683254 47.639098 
L 120.479426 49.001504 
L 117.275598 47.639098 
L 114.07177 47.639098 
L 110.867943 47.639098 
L 107.664115 47.639098 
L 104.460287 47.639098 
L 101.256459 47.639098 
L 98.052632 47.639098 
L 94.848804 47.639098 
L 91.644976 47.639098 
L 88.441148 47.639098 
L 85.237321 47.639098 
L 82.033493 47.639098 
L 78.829665 47.639098 
L 75.625837 47.639098 
L 72.42201 47.639098 
L 69.218182 47.639098 
z
" style="fill:#9467bd;"/>
   </g>
   <g id="PolyCollection_6">
    <path clip-path="url(#p3984cdb2f1)" d="M 69.218182 47.639098 
L 69.218182 47.639098 
L 72.42201 47.639098 
L 75.625837 47.639098 
L 78.829665 47.639098 
L 82.033493 47.639098 
L 85.237321 47.639098 
L 88.441148 47.639098 
L 91.644976 47.639098 
L 94.848804 47.639098 
L 98.052632 47.639098 
L 101.256459 47.639098 
L 104.460287 47.639098 
L 107.664115 47.639098 
L 110.867943 47.639098 
L 114.07177 47.639098 
L 117.275598 47.639098 
L 120.479426 49.001504 
L 123.683254 47.639098 
L 126.887081 49.001504 
L 130.090909 47.639098 
L 133.294737 49.001504 
L 136.498565 49.001504 
L 139.702392 49.001504 
L 142.90622 49.001504 
L 146.110048 47.639098 
L 149.313876 46.276692 
L 152.517703 47.639098 
L 155.721531 47.639098 
L 158.925359 47.639098 
L 162.129187 49.001504 
L 165.333014 47.639098 
L 168.536842 47.639098 
L 171.74067 47.639098 
L 174.944498 47.639098 
L 178.148325 46.276692 
L 181.352153 47.639098 
L 184.555981 47.639098 
L 187.759809 47.639098 
L 190.963636 46.276692 
L 194.167464 47.639098 
L 197.371292 47.639098 
L 200.57512 49.001504 
L 203.778947 47.639098 
L 206.982775 58.538346 
L 210.186603 93.960902 
L 213.390431 110.309774 
L 216.594258 89.873684 
L 219.798086 98.04812 
L 223.001914 96.685714 
L 226.205742 96.685714 
L 229.409569 88.511278 
L 232.613397 91.23609 
L 235.817225 96.685714 
L 239.021053 99.410526 
L 242.22488 103.497744 
L 245.428708 99.410526 
L 248.632536 106.222556 
L 251.836364 119.846617 
L 255.040191 143.007519 
L 258.244019 149.819549 
L 261.447847 160.718797 
L 264.651675 163.443609 
L 267.855502 170.255639 
L 271.05933 183.879699 
L 274.263158 192.054135 
L 277.466986 193.416541 
L 280.670813 193.416541 
L 283.874641 190.691729 
L 287.078469 194.778947 
L 290.282297 196.141353 
L 293.486124 193.416541 
L 296.689952 187.966917 
L 299.89378 196.141353 
L 303.097608 201.590977 
L 306.301435 197.503759 
L 309.505263 197.503759 
L 312.709091 194.778947 
L 315.912919 201.590977 
L 319.116746 198.866165 
L 322.320574 197.503759 
L 325.524402 202.953383 
L 328.72823 204.315789 
L 331.932057 204.315789 
L 335.135885 205.678195 
L 338.339713 211.12782 
L 341.543541 204.315789 
L 344.747368 198.866165 
L 347.951196 198.866165 
L 351.155024 201.590977 
L 354.358852 207.040602 
L 357.562679 200.228571 
L 360.766507 198.866165 
L 363.970335 207.040602 
L 367.174163 209.765414 
L 370.37799 208.403008 
L 373.581818 205.678195 
L 373.581818 162.081203 
L 373.581818 162.081203 
L 370.37799 167.530827 
L 367.174163 168.893233 
L 363.970335 167.530827 
L 360.766507 160.718797 
L 357.562679 160.718797 
L 354.358852 164.806015 
L 351.155024 160.718797 
L 347.951196 157.993985 
L 344.747368 159.356391 
L 341.543541 162.081203 
L 338.339713 168.893233 
L 335.135885 162.081203 
L 331.932057 156.631579 
L 328.72823 157.993985 
L 325.524402 152.544361 
L 322.320574 149.819549 
L 319.116746 149.819549 
L 315.912919 145.732331 
L 312.709091 144.369925 
L 309.505263 143.007519 
L 306.301435 147.094737 
L 303.097608 144.369925 
L 299.89378 144.369925 
L 296.689952 133.470677 
L 293.486124 137.557895 
L 290.282297 143.007519 
L 287.078469 137.557895 
L 283.874641 134.833083 
L 280.670813 138.920301 
L 277.466986 136.195489 
L 274.263158 132.108271 
L 271.05933 122.571429 
L 267.855502 93.960902 
L 264.651675 73.524812 
L 261.447847 78.974436 
L 258.244019 54.451128 
L 255.040191 47.639098 
L 251.836364 47.639098 
L 248.632536 47.639098 
L 245.428708 47.639098 
L 242.22488 49.001504 
L 239.021053 49.001504 
L 235.817225 47.639098 
L 232.613397 49.001504 
L 229.409569 47.639098 
L 226.205742 47.639098 
L 223.001914 47.639098 
L 219.798086 46.276692 
L 216.594258 46.276692 
L 213.390431 47.639098 
L 210.186603 49.001504 
L 206.982775 47.639098 
L 203.778947 47.639098 
L 200.57512 49.001504 
L 197.371292 47.639098 
L 194.167464 47.639098 
L 190.963636 46.276692 
L 187.759809 47.639098 
L 184.555981 47.639098 
L 181.352153 47.639098 
L 178.148325 46.276692 
L 174.944498 47.639098 
L 171.74067 47.639098 
L 168.536842 47.639098 
L 165.333014 47.639098 
L 162.129187 49.001504 
L 158.925359 47.639098 
L 155.721531 47.639098 
L 152.517703 47.639098 
L 149.313876 46.276692 
L 146.110048 47.639098 
L 142.90622 49.001504 
L 139.702392 49.001504 
L 136.498565 49.001504 
L 133.294737 49.001504 
L 130.090909 47.639098 
L 126.887081 49.001504 
L 123.683254 47.639098 
L 120.479426 49.001504 
L 117.275598 47.639098 
L 114.07177 47.639098 
L 110.867943 47.639098 
L 107.664115 47.639098 
L 104.460287 47.639098 
L 101.256459 47.639098 
L 98.052632 47.639098 
L 94.848804 47.639098 
L 91.644976 47.639098 
L 88.441148 47.639098 
L 85.237321 47.639098 
L 82.033493 47.639098 
L 78.829665 47.639098 
L 75.625837 47.639098 
L 72.42201 47.639098 
L 69.218182 47.639098 
z
" style="fill:#8c564b;"/>
   </g>
   <g id="PolyCollection_7">
    <path clip-path="url(#p3984cdb2f1)" d="M 69.218182 47.639098 
L 69.218182 47.639098 
L 72.42201 47.639098 
L 75.625837 47.639098 
L 78.829665 47.639098 
L 82.033493 47.639098 
L 85.237321 47.639098 
L 88.441148 47.639098 
L 91.644976 47.639098 
L 94.848804 47.639098 
L 98.052632 47.639098 
L 101.256459 47.639098 
L 104.460287 47.639098 
L 107.664115 47.639098 
L 110.867943 47.639098 
L 114.07177 47.639098 
L 117.275598 47.639098 
L 120.479426 49.001504 
L 123.683254 47.639098 
L 126.887081 49.001504 
L 130.090909 47.639098 
L 133.294737 49.001504 
L 136.498565 49.001504 
L 139.702392 49.001504 
L 142.90622 49.001504 
L 146.110048 47.639098 
L 149.313876 46.276692 
L 152.517703 47.639098 
L 155.721531 47.639098 
L 158.925359 47.639098 
L 162.129187 49.001504 
L 165.333014 47.639098 
L 168.536842 47.639098 
L 171.74067 47.639098 
L 174.944498 47.639098 
L 178.148325 46.276692 
L 181.352153 47.639098 
L 184.555981 47.639098 
L 187.759809 47.639098 
L 190.963636 46.276692 
L 194.167464 47.639098 
L 197.371292 47.639098 
L 200.57512 49.001504 
L 203.778947 47.639098 
L 206.982775 47.639098 
L 210.186603 49.001504 
L 213.390431 47.639098 
L 216.594258 46.276692 
L 219.798086 46.276692 
L 223.001914 47.639098 
L 226.205742 47.639098 
L 229.409569 47.639098 
L 232.613397 49.001504 
L 235.817225 47.639098 
L 239.021053 49.001504 
L 242.22488 49.001504 
L 245.428708 47.639098 
L 248.632536 47.639098 
L 251.836364 47.639098 
L 255.040191 47.639098 
L 258.244019 54.451128 
L 261.447847 78.974436 
L 264.651675 73.524812 
L 267.855502 93.960902 
L 271.05933 122.571429 
L 274.263158 132.108271 
L 277.466986 136.195489 
L 280.670813 138.920301 
L 283.874641 134.833083 
L 287.078469 137.557895 
L 290.282297 143.007519 
L 293.486124 137.557895 
L 296.689952 133.470677 
L 299.89378 144.369925 
L 303.097608 144.369925 
L 306.301435 147.094737 
L 309.505263 143.007519 
L 312.709091 144.369925 
L 315.912919 145.732331 
L 319.116746 149.819549 
L 322.320574 149.819549 
L 325.524402 152.544361 
L 328.72823 157.993985 
L 331.932057 156.631579 
L 335.135885 162.081203 
L 338.339713 168.893233 
L 341.543541 162.081203 
L 344.747368 159.356391 
L 347.951196 157.993985 
L 351.155024 160.718797 
L 354.358852 164.806015 
L 357.562679 160.718797 
L 360.766507 160.718797 
L 363.970335 167.530827 
L 367.174163 168.893233 
L 370.37799 167.530827 
L 373.581818 162.081203 
L 373.581818 119.846617 
L 373.581818 119.846617 
L 370.37799 126.658647 
L 367.174163 125.296241 
L 363.970335 123.933835 
L 360.766507 126.658647 
L 357.562679 128.021053 
L 354.358852 129.383459 
L 351.155024 118.484211 
L 347.951196 118.484211 
L 344.747368 119.846617 
L 341.543541 122.571429 
L 338.339713 125.296241 
L 335.135885 119.846617 
L 331.932057 113.034586 
L 328.72823 111.67218 
L 325.524402 107.584962 
L 322.320574 98.04812 
L 319.116746 107.584962 
L 315.912919 99.410526 
L 312.709091 93.960902 
L 309.505263 100.772932 
L 306.301435 102.135338 
L 303.097608 103.497744 
L 299.89378 104.86015 
L 296.689952 98.04812 
L 293.486124 95.323308 
L 290.282297 103.497744 
L 287.078469 103.497744 
L 283.874641 103.497744 
L 280.670813 100.772932 
L 277.466986 103.497744 
L 274.263158 91.23609 
L 271.05933 83.061654 
L 267.855502 62.625564 
L 264.651675 47.639098 
L 261.447847 46.276692 
L 258.244019 47.639098 
L 255.040191 47.639098 
L 251.836364 47.639098 
L 248.632536 47.639098 
L 245.428708 47.639098 
L 242.22488 49.001504 
L 239.021053 49.001504 
L 235.817225 47.639098 
L 232.613397 49.001504 
L 229.409569 47.639098 
L 226.205742 47.639098 
L 223.001914 47.639098 
L 219.798086 46.276692 
L 216.594258 46.276692 
L 213.390431 47.639098 
L 210.186603 49.001504 
L 206.982775 47.639098 
L 203.778947 47.639098 
L 200.57512 49.001504 
L 197.371292 47.639098 
L 194.167464 47.639098 
L 190.963636 46.276692 
L 187.759809 47.639098 
L 184.555981 47.639098 
L 181.352153 47.639098 
L 178.148325 46.276692 
L 174.944498 47.639098 
L 171.74067 47.639098 
L 168.536842 47.639098 
L 165.333014 47.639098 
L 162.129187 49.001504 
L 158.925359 47.639098 
L 155.721531 47.639098 
L 152.517703 47.639098 
L 149.313876 46.276692 
L 146.110048 47.639098 
L 142.90622 49.001504 
L 139.702392 49.001504 
L 136.498565 49.001504 
L 133.294737 49.001504 
L 130.090909 47.639098 
L 126.887081 49.001504 
L 123.683254 47.639098 
L 120.479426 49.001504 
L 117.275598 47.639098 
L 114.07177 47.639098 
L 110.867943 47.639098 
L 107.664115 47.639098 
L 104.460287 47.639098 
L 101.256459 47.639098 
L 98.052632 47.639098 
L 94.848804 47.639098 
L 91.644976 47.639098 
L 88.441148 47.639098 
L 85.237321 47.639098 
L 82.033493 47.639098 
L 78.829665 47.639098 
L 75.625837 47.639098 
L 72.42201 47.639098 
L 69.218182 47.639098 
z
" style="fill:#e377c2;"/>
   </g>
   <g id="PolyCollection_8">
    <path clip-path="url(#p3984cdb2f1)" d="M 69.218182 47.639098 
L 69.218182 47.639098 
L 72.42201 47.639098 
L 75.625837 47.639098 
L 78.829665 47.639098 
L 82.033493 47.639098 
L 85.237321 47.639098 
L 88.441148 47.639098 
L 91.644976 47.639098 
L 94.848804 47.639098 
L 98.052632 47.639098 
L 101.256459 47.639098 
L 104.460287 47.639098 
L 107.664115 47.639098 
L 110.867943 47.639098 
L 114.07177 47.639098 
L 117.275598 47.639098 
L 120.479426 49.001504 
L 123.683254 47.639098 
L 126.887081 49.001504 
L 130.090909 47.639098 
L 133.294737 49.001504 
L 136.498565 49.001504 
L 139.702392 49.001504 
L 142.90622 49.001504 
L 146.110048 47.639098 
L 149.313876 46.276692 
L 152.517703 47.639098 
L 155.721531 47.639098 
L 158.925359 47.639098 
L 162.129187 49.001504 
L 165.333014 47.639098 
L 168.536842 47.639098 
L 171.74067 47.639098 
L 174.944498 47.639098 
L 178.148325 46.276692 
L 181.352153 47.639098 
L 184.555981 47.639098 
L 187.759809 47.639098 
L 190.963636 46.276692 
L 194.167464 47.639098 
L 197.371292 47.639098 
L 200.57512 49.001504 
L 203.778947 47.639098 
L 206.982775 47.639098 
L 210.186603 49.001504 
L 213.390431 47.639098 
L 216.594258 46.276692 
L 219.798086 46.276692 
L 223.001914 47.639098 
L 226.205742 47.639098 
L 229.409569 47.639098 
L 232.613397 49.001504 
L 235.817225 47.639098 
L 239.021053 49.001504 
L 242.22488 49.001504 
L 245.428708 47.639098 
L 248.632536 47.639098 
L 251.836364 47.639098 
L 255.040191 47.639098 
L 258.244019 47.639098 
L 261.447847 46.276692 
L 264.651675 47.639098 
L 267.855502 62.625564 
L 271.05933 83.061654 
L 274.263158 91.23609 
L 277.466986 103.497744 
L 280.670813 100.772932 
L 283.874641 103.497744 
L 287.078469 103.497744 
L 290.282297 103.497744 
L 293.486124 95.323308 
L 296.689952 98.04812 
L 299.89378 104.86015 
L 303.097608 103.497744 
L 306.301435 102.135338 
L 309.505263 100.772932 
L 312.709091 93.960902 
L 315.912919 99.410526 
L 319.116746 107.584962 
L 322.320574 98.04812 
L 325.524402 107.584962 
L 328.72823 111.67218 
L 331.932057 113.034586 
L 335.135885 119.846617 
L 338.339713 125.296241 
L 341.543541 122.571429 
L 344.747368 119.846617 
L 347.951196 118.484211 
L 351.155024 118.484211 
L 354.358852 129.383459 
L 357.562679 128.021053 
L 360.766507 126.658647 
L 363.970335 123.933835 
L 367.174163 125.296241 
L 370.37799 126.658647 
L 373.581818 119.846617 
L 373.581818 80.336842 
L 373.581818 80.336842 
L 370.37799 84.42406 
L 367.174163 87.148872 
L 363.970335 87.148872 
L 360.766507 92.598496 
L 357.562679 85.786466 
L 354.358852 84.42406 
L 351.155024 83.061654 
L 347.951196 78.974436 
L 344.747368 78.974436 
L 341.543541 81.699248 
L 338.339713 87.148872 
L 335.135885 81.699248 
L 331.932057 74.887218 
L 328.72823 70.8 
L 325.524402 59.900752 
L 322.320574 49.001504 
L 319.116746 47.639098 
L 315.912919 47.639098 
L 312.709091 47.639098 
L 309.505263 47.639098 
L 306.301435 46.276692 
L 303.097608 49.001504 
L 299.89378 49.001504 
L 296.689952 49.001504 
L 293.486124 47.639098 
L 290.282297 47.639098 
L 287.078469 47.639098 
L 283.874641 47.639098 
L 280.670813 49.001504 
L 277.466986 47.639098 
L 274.263158 49.001504 
L 271.05933 49.001504 
L 267.855502 47.639098 
L 264.651675 47.639098 
L 261.447847 46.276692 
L 258.244019 47.639098 
L 255.040191 47.639098 
L 251.836364 47.639098 
L 248.632536 47.639098 
L 245.428708 47.639098 
L 242.22488 49.001504 
L 239.021053 49.001504 
L 235.817225 47.639098 
L 232.613397 49.001504 
L 229.409569 47.639098 
L 226.205742 47.639098 
L 223.001914 47.639098 
L 219.798086 46.276692 
L 216.594258 46.276692 
L 213.390431 47.639098 
L 210.186603 49.001504 
L 206.982775 47.639098 
L 203.778947 47.639098 
L 200.57512 49.001504 
L 197.371292 47.639098 
L 194.167464 47.639098 
L 190.963636 46.276692 
L 187.759809 47.639098 
L 184.555981 47.639098 
L 181.352153 47.639098 
L 178.148325 46.276692 
L 174.944498 47.639098 
L 171.74067 47.639098 
L 168.536842 47.639098 
L 165.333014 47.639098 
L 162.129187 49.001504 
L 158.925359 47.639098 
L 155.721531 47.639098 
L 152.517703 47.639098 
L 149.313876 46.276692 
L 146.110048 47.639098 
L 142.90622 49.001504 
L 139.702392 49.001504 
L 136.498565 49.001504 
L 133.294737 49.001504 
L 130.090909 47.639098 
L 126.887081 49.001504 
L 123.683254 47.639098 
L 120.479426 49.001504 
L 117.275598 47.639098 
L 114.07177 47.639098 
L 110.867943 47.639098 
L 107.664115 47.639098 
L 104.460287 47.639098 
L 101.256459 47.639098 
L 98.052632 47.639098 
L 94.848804 47.639098 
L 91.644976 47.639098 
L 88.441148 47.639098 
L 85.237321 47.639098 
L 82.033493 47.639098 
L 78.829665 47.639098 
L 75.625837 47.639098 
L 72.42201 47.639098 
L 69.218182 47.639098 
z
" style="fill:#7f7f7f;"/>
   </g>
   <g id="PolyCollection_9">
    <path clip-path="url(#p3984cdb2f1)" d="M 69.218182 47.639098 
L 69.218182 47.639098 
L 72.42201 47.639098 
L 75.625837 47.639098 
L 78.829665 47.639098 
L 82.033493 47.639098 
L 85.237321 47.639098 
L 88.441148 47.639098 
L 91.644976 47.639098 
L 94.848804 47.639098 
L 98.052632 47.639098 
L 101.256459 47.639098 
L 104.460287 47.639098 
L 107.664115 47.639098 
L 110.867943 47.639098 
L 114.07177 47.639098 
L 117.275598 47.639098 
L 120.479426 49.001504 
L 123.683254 47.639098 
L 126.887081 49.001504 
L 130.090909 47.639098 
L 133.294737 49.001504 
L 136.498565 49.001504 
L 139.702392 49.001504 
L 142.90622 49.001504 
L 146.110048 47.639098 
L 149.313876 46.276692 
L 152.517703 47.639098 
L 155.721531 47.639098 
L 158.925359 47.639098 
L 162.129187 49.001504 
L 165.333014 47.639098 
L 168.536842 47.639098 
L 171.74067 47.639098 
L 174.944498 47.639098 
L 178.148325 46.276692 
L 181.352153 47.639098 
L 184.555981 47.639098 
L 187.759809 47.639098 
L 190.963636 46.276692 
L 194.167464 47.639098 
L 197.371292 47.639098 
L 200.57512 49.001504 
L 203.778947 47.639098 
L 206.982775 47.639098 
L 210.186603 49.001504 
L 213.390431 47.639098 
L 216.594258 46.276692 
L 219.798086 46.276692 
L 223.001914 47.639098 
L 226.205742 47.639098 
L 229.409569 47.639098 
L 232.613397 49.001504 
L 235.817225 47.639098 
L 239.021053 49.001504 
L 242.22488 49.001504 
L 245.428708 47.639098 
L 248.632536 47.639098 
L 251.836364 47.639098 
L 255.040191 47.639098 
L 258.244019 47.639098 
L 261.447847 46.276692 
L 264.651675 47.639098 
L 267.855502 47.639098 
L 271.05933 49.001504 
L 274.263158 49.001504 
L 277.466986 47.639098 
L 280.670813 49.001504 
L 283.874641 47.639098 
L 287.078469 47.639098 
L 290.282297 47.639098 
L 293.486124 47.639098 
L 296.689952 49.001504 
L 299.89378 49.001504 
L 303.097608 49.001504 
L 306.301435 46.276692 
L 309.505263 47.639098 
L 312.709091 47.639098 
L 315.912919 47.639098 
L 319.116746 47.639098 
L 322.320574 49.001504 
L 325.524402 59.900752 
L 328.72823 70.8 
L 331.932057 74.887218 
L 335.135885 81.699248 
L 338.339713 87.148872 
L 341.543541 81.699248 
L 344.747368 78.974436 
L 347.951196 78.974436 
L 351.155024 83.061654 
L 354.358852 84.42406 
L 357.562679 85.786466 
L 360.766507 92.598496 
L 363.970335 87.148872 
L 367.174163 87.148872 
L 370.37799 84.42406 
L 373.581818 80.336842 
L 373.581818 46.276692 
L 373.581818 46.276692 
L 370.37799 44.914286 
L 367.174163 46.276692 
L 363.970335 47.639098 
L 360.766507 49.001504 
L 357.562679 47.639098 
L 354.358852 46.276692 
L 351.155024 44.914286 
L 347.951196 46.276692 
L 344.747368 44.914286 
L 341.543541 46.276692 
L 338.339713 49.001504 
L 335.135885 47.639098 
L 331.932057 46.276692 
L 328.72823 47.639098 
L 325.524402 46.276692 
L 322.320574 46.276692 
L 319.116746 46.276692 
L 315.912919 47.639098 
L 312.709091 47.639098 
L 309.505263 47.639098 
L 306.301435 46.276692 
L 303.097608 49.001504 
L 299.89378 49.001504 
L 296.689952 49.001504 
L 293.486124 47.639098 
L 290.282297 47.639098 
L 287.078469 47.639098 
L 283.874641 47.639098 
L 280.670813 49.001504 
L 277.466986 47.639098 
L 274.263158 49.001504 
L 271.05933 49.001504 
L 267.855502 47.639098 
L 264.651675 47.639098 
L 261.447847 46.276692 
L 258.244019 47.639098 
L 255.040191 47.639098 
L 251.836364 47.639098 
L 248.632536 47.639098 
L 245.428708 47.639098 
L 242.22488 49.001504 
L 239.021053 49.001504 
L 235.817225 47.639098 
L 232.613397 49.001504 
L 229.409569 47.639098 
L 226.205742 47.639098 
L 223.001914 47.639098 
L 219.798086 46.276692 
L 216.594258 46.276692 
L 213.390431 47.639098 
L 210.186603 49.001504 
L 206.982775 47.639098 
L 203.778947 47.639098 
L 200.57512 49.001504 
L 197.371292 47.639098 
L 194.167464 47.639098 
L 190.963636 46.276692 
L 187.759809 47.639098 
L 184.555981 47.639098 
L 181.352153 47.639098 
L 178.148325 46.276692 
L 174.944498 47.639098 
L 171.74067 47.639098 
L 168.536842 47.639098 
L 165.333014 47.639098 
L 162.129187 49.001504 
L 158.925359 47.639098 
L 155.721531 47.639098 
L 152.517703 47.639098 
L 149.313876 46.276692 
L 146.110048 47.639098 
L 142.90622 49.001504 
L 139.702392 49.001504 
L 136.498565 49.001504 
L 133.294737 49.001504 
L 130.090909 47.639098 
L 126.887081 49.001504 
L 123.683254 47.639098 
L 120.479426 49.001504 
L 117.275598 47.639098 
L 114.07177 47.639098 
L 110.867943 47.639098 
L 107.664115 47.639098 
L 104.460287 47.639098 
L 101.256459 47.639098 
L 98.052632 47.639098 
L 94.848804 47.639098 
L 91.644976 47.639098 
L 88.441148 47.639098 
L 85.237321 47.639098 
L 82.033493 47.639098 
L 78.829665 47.639098 
L 75.625837 47.639098 
L 72.42201 47.639098 
L 69.218182 47.639098 
z
" style="fill:#bcbd22;"/>
   </g>
   <g id="matplotlib.axis_1">
    <g id="xtick_1">
     <g id="line2d_1">
      <defs>
       <path d="M 0 0 
L 0 3.5 
" id="m820864ba60" style="stroke:#000000;stroke-width:0.8;"/>
      </defs>
      <g>
       <use style="stroke:#000000;stroke-width:0.8;" x="69.218182" xlink:href="#m820864ba60" y="252"/>
      </g>
     </g>
     <g id="text_1">
      <!-- 0 -->
      <defs>
       <path d="M 31.78125 66.40625 
Q 24.171875 66.40625 20.328125 58.90625 
Q 16.5 51.421875 16.5 36.375 
Q 16.5 21.390625 20.328125 13.890625 
Q 24.171875 6.390625 31.78125 6.390625 
Q 39.453125 6.390625 43.28125 13.890625 
Q 47.125 21.390625 47.125 36.375 
Q 47.125 51.421875 43.28125 58.90625 
Q 39.453125 66.40625 31.78125 66.40625 
M 31.78125 74.21875 
Q 44.046875 74.21875 50.515625 64.515625 
Q 56.984375 54.828125 56.984375 36.375 
Q 56.984375 17.96875 50.515625 8.265625 
Q 44.046875 -1.421875 31.78125 -1.421875 
Q 19.53125 -1.421875 13.0625 8.265625 
Q 6.59375 17.96875 6.59375 36.375 
Q 6.59375 54.828125 13.0625 64.515625 
Q 19.53125 74.21875 31.78125 74.21875 
" id="DejaVuSans-30"/>
      </defs>
      <g transform="translate(66.036932 266.598437)scale(0.1 -0.1)">
       <use xlink:href="#DejaVuSans-30"/>
      </g>
     </g>
    </g>
    <g id="xtick_2">
     <g id="line2d_2">
      <g>
       <use style="stroke:#000000;stroke-width:0.8;" x="133.294737" xlink:href="#m820864ba60" y="252"/>
      </g>
     </g>
     <g id="text_2">
      <!-- 20 -->
      <defs>
       <path d="M 19.1875 8.296875 
L 53.609375 8.296875 
L 53.609375 0 
L 7.328125 0 
L 7.328125 8.296875 
Q 12.9375 14.109375 22.625 23.890625 
Q 32.328125 33.6875 34.8125 36.53125 
Q 39.546875 41.84375 41.421875 45.53125 
Q 43.3125 49.21875 43.3125 52.78125 
Q 43.3125 58.59375 39.234375 62.25 
Q 35.15625 65.921875 28.609375 65.921875 
Q 23.96875 65.921875 18.8125 64.3125 
Q 13.671875 62.703125 7.8125 59.421875 
L 7.8125 69.390625 
Q 13.765625 71.78125 18.9375 73 
Q 24.125 74.21875 28.421875 74.21875 
Q 39.75 74.21875 46.484375 68.546875 
Q 53.21875 62.890625 53.21875 53.421875 
Q 53.21875 48.921875 51.53125 44.890625 
Q 49.859375 40.875 45.40625 35.40625 
Q 44.1875 33.984375 37.640625 27.21875 
Q 31.109375 20.453125 19.1875 8.296875 
" id="DejaVuSans-32"/>
      </defs>
      <g transform="translate(126.932237 266.598437)scale(0.1 -0.1)">
       <use xlink:href="#DejaVuSans-32"/>
       <use x="63.623047" xlink:href="#DejaVuSans-30"/>
      </g>
     </g>
    </g>
    <g id="xtick_3">
     <g id="line2d_3">
      <g>
       <use style="stroke:#000000;stroke-width:0.8;" x="197.371292" xlink:href="#m820864ba60" y="252"/>
      </g>
     </g>
     <g id="text_3">
      <!-- 40 -->
      <defs>
       <path d="M 37.796875 64.3125 
L 12.890625 25.390625 
L 37.796875 25.390625 
z
M 35.203125 72.90625 
L 47.609375 72.90625 
L 47.609375 25.390625 
L 58.015625 25.390625 
L 58.015625 17.1875 
L 47.609375 17.1875 
L 47.609375 0 
L 37.796875 0 
L 37.796875 17.1875 
L 4.890625 17.1875 
L 4.890625 26.703125 
z
" id="DejaVuSans-34"/>
      </defs>
      <g transform="translate(191.008792 266.598437)scale(0.1 -0.1)">
       <use xlink:href="#DejaVuSans-34"/>
       <use x="63.623047" xlink:href="#DejaVuSans-30"/>
      </g>
     </g>
    </g>
    <g id="xtick_4">
     <g id="line2d_4">
      <g>
       <use style="stroke:#000000;stroke-width:0.8;" x="261.447847" xlink:href="#m820864ba60" y="252"/>
      </g>
     </g>
     <g id="text_4">
      <!-- 60 -->
      <defs>
       <path d="M 33.015625 40.375 
Q 26.375 40.375 22.484375 35.828125 
Q 18.609375 31.296875 18.609375 23.390625 
Q 18.609375 15.53125 22.484375 10.953125 
Q 26.375 6.390625 33.015625 6.390625 
Q 39.65625 6.390625 43.53125 10.953125 
Q 47.40625 15.53125 47.40625 23.390625 
Q 47.40625 31.296875 43.53125 35.828125 
Q 39.65625 40.375 33.015625 40.375 
M 52.59375 71.296875 
L 52.59375 62.3125 
Q 48.875 64.0625 45.09375 64.984375 
Q 41.3125 65.921875 37.59375 65.921875 
Q 27.828125 65.921875 22.671875 59.328125 
Q 17.53125 52.734375 16.796875 39.40625 
Q 19.671875 43.65625 24.015625 45.921875 
Q 28.375 48.1875 33.59375 48.1875 
Q 44.578125 48.1875 50.953125 41.515625 
Q 57.328125 34.859375 57.328125 23.390625 
Q 57.328125 12.15625 50.6875 5.359375 
Q 44.046875 -1.421875 33.015625 -1.421875 
Q 20.359375 -1.421875 13.671875 8.265625 
Q 6.984375 17.96875 6.984375 36.375 
Q 6.984375 53.65625 15.1875 63.9375 
Q 23.390625 74.21875 37.203125 74.21875 
Q 40.921875 74.21875 44.703125 73.484375 
Q 48.484375 72.75 52.59375 71.296875 
" id="DejaVuSans-36"/>
      </defs>
      <g transform="translate(255.085347 266.598437)scale(0.1 -0.1)">
       <use xlink:href="#DejaVuSans-36"/>
       <use x="63.623047" xlink:href="#DejaVuSans-30"/>
      </g>
     </g>
    </g>
    <g id="xtick_5">
     <g id="line2d_5">
      <g>
       <use style="stroke:#000000;stroke-width:0.8;" x="325.524402" xlink:href="#m820864ba60" y="252"/>
      </g>
     </g>
     <g id="text_5">
      <!-- 80 -->
      <defs>
       <path d="M 31.78125 34.625 
Q 24.75 34.625 20.71875 30.859375 
Q 16.703125 27.09375 16.703125 20.515625 
Q 16.703125 13.921875 20.71875 10.15625 
Q 24.75 6.390625 31.78125 6.390625 
Q 38.8125 6.390625 42.859375 10.171875 
Q 46.921875 13.96875 46.921875 20.515625 
Q 46.921875 27.09375 42.890625 30.859375 
Q 38.875 34.625 31.78125 34.625 
M 21.921875 38.8125 
Q 15.578125 40.375 12.03125 44.71875 
Q 8.5 49.078125 8.5 55.328125 
Q 8.5 64.0625 14.71875 69.140625 
Q 20.953125 74.21875 31.78125 74.21875 
Q 42.671875 74.21875 48.875 69.140625 
Q 55.078125 64.0625 55.078125 55.328125 
Q 55.078125 49.078125 51.53125 44.71875 
Q 48 40.375 41.703125 38.8125 
Q 48.828125 37.15625 52.796875 32.3125 
Q 56.78125 27.484375 56.78125 20.515625 
Q 56.78125 9.90625 50.3125 4.234375 
Q 43.84375 -1.421875 31.78125 -1.421875 
Q 19.734375 -1.421875 13.25 4.234375 
Q 6.78125 9.90625 6.78125 20.515625 
Q 6.78125 27.484375 10.78125 32.3125 
Q 14.796875 37.15625 21.921875 38.8125 
M 18.3125 54.390625 
Q 18.3125 48.734375 21.84375 45.5625 
Q 25.390625 42.390625 31.78125 42.390625 
Q 38.140625 42.390625 41.71875 45.5625 
Q 45.3125 48.734375 45.3125 54.390625 
Q 45.3125 60.0625 41.71875 63.234375 
Q 38.140625 66.40625 31.78125 66.40625 
Q 25.390625 66.40625 21.84375 63.234375 
Q 18.3125 60.0625 18.3125 54.390625 
" id="DejaVuSans-38"/>
      </defs>
      <g transform="translate(319.161902 266.598437)scale(0.1 -0.1)">
       <use xlink:href="#DejaVuSans-38"/>
       <use x="63.623047" xlink:href="#DejaVuSans-30"/>
      </g>
     </g>
    </g>
    <g id="text_6">
     <!-- Generations -->
     <defs>
      <path d="M 59.515625 10.40625 
L 59.515625 29.984375 
L 43.40625 29.984375 
L 43.40625 38.09375 
L 69.28125 38.09375 
L 69.28125 6.78125 
Q 63.578125 2.734375 56.6875 0.65625 
Q 49.8125 -1.421875 42 -1.421875 
Q 24.90625 -1.421875 15.25 8.5625 
Q 5.609375 18.5625 5.609375 36.375 
Q 5.609375 54.25 15.25 64.234375 
Q 24.90625 74.21875 42 74.21875 
Q 49.125 74.21875 55.546875 72.453125 
Q 61.96875 70.703125 67.390625 67.28125 
L 67.390625 56.78125 
Q 61.921875 61.421875 55.765625 63.765625 
Q 49.609375 66.109375 42.828125 66.109375 
Q 29.4375 66.109375 22.71875 58.640625 
Q 16.015625 51.171875 16.015625 36.375 
Q 16.015625 21.625 22.71875 14.15625 
Q 29.4375 6.6875 42.828125 6.6875 
Q 48.046875 6.6875 52.140625 7.59375 
Q 56.25 8.5 59.515625 10.40625 
" id="DejaVuSans-47"/>
      <path d="M 56.203125 29.59375 
L 56.203125 25.203125 
L 14.890625 25.203125 
Q 15.484375 15.921875 20.484375 11.0625 
Q 25.484375 6.203125 34.421875 6.203125 
Q 39.59375 6.203125 44.453125 7.46875 
Q 49.3125 8.734375 54.109375 11.28125 
L 54.109375 2.78125 
Q 49.265625 0.734375 44.1875 -0.34375 
Q 39.109375 -1.421875 33.890625 -1.421875 
Q 20.796875 -1.421875 13.15625 6.1875 
Q 5.515625 13.8125 5.515625 26.8125 
Q 5.515625 40.234375 12.765625 48.109375 
Q 20.015625 56 32.328125 56 
Q 43.359375 56 49.78125 48.890625 
Q 56.203125 41.796875 56.203125 29.59375 
M 47.21875 32.234375 
Q 47.125 39.59375 43.09375 43.984375 
Q 39.0625 48.390625 32.421875 48.390625 
Q 24.90625 48.390625 20.390625 44.140625 
Q 15.875 39.890625 15.1875 32.171875 
z
" id="DejaVuSans-65"/>
      <path d="M 54.890625 33.015625 
L 54.890625 0 
L 45.90625 0 
L 45.90625 32.71875 
Q 45.90625 40.484375 42.875 44.328125 
Q 39.84375 48.1875 33.796875 48.1875 
Q 26.515625 48.1875 22.3125 43.546875 
Q 18.109375 38.921875 18.109375 30.90625 
L 18.109375 0 
L 9.078125 0 
L 9.078125 54.6875 
L 18.109375 54.6875 
L 18.109375 46.1875 
Q 21.34375 51.125 25.703125 53.5625 
Q 30.078125 56 35.796875 56 
Q 45.21875 56 50.046875 50.171875 
Q 54.890625 44.34375 54.890625 33.015625 
" id="DejaVuSans-6e"/>
      <path d="M 41.109375 46.296875 
Q 39.59375 47.171875 37.8125 47.578125 
Q 36.03125 48 33.890625 48 
Q 26.265625 48 22.1875 43.046875 
Q 18.109375 38.09375 18.109375 28.8125 
L 18.109375 0 
L 9.078125 0 
L 9.078125 54.6875 
L 18.109375 54.6875 
L 18.109375 46.1875 
Q 20.953125 51.171875 25.484375 53.578125 
Q 30.03125 56 36.53125 56 
Q 37.453125 56 38.578125 55.875 
Q 39.703125 55.765625 41.0625 55.515625 
z
" id="DejaVuSans-72"/>
      <path d="M 34.28125 27.484375 
Q 23.390625 27.484375 19.1875 25 
Q 14.984375 22.515625 14.984375 16.5 
Q 14.984375 11.71875 18.140625 8.90625 
Q 21.296875 6.109375 26.703125 6.109375 
Q 34.1875 6.109375 38.703125 11.40625 
Q 43.21875 16.703125 43.21875 25.484375 
L 43.21875 27.484375 
z
M 52.203125 31.203125 
L 52.203125 0 
L 43.21875 0 
L 43.21875 8.296875 
Q 40.140625 3.328125 35.546875 0.953125 
Q 30.953125 -1.421875 24.3125 -1.421875 
Q 15.921875 -1.421875 10.953125 3.296875 
Q 6 8.015625 6 15.921875 
Q 6 25.140625 12.171875 29.828125 
Q 18.359375 34.515625 30.609375 34.515625 
L 43.21875 34.515625 
L 43.21875 35.40625 
Q 43.21875 41.609375 39.140625 45 
Q 35.0625 48.390625 27.6875 48.390625 
Q 23 48.390625 18.546875 47.265625 
Q 14.109375 46.140625 10.015625 43.890625 
L 10.015625 52.203125 
Q 14.9375 54.109375 19.578125 55.046875 
Q 24.21875 56 28.609375 56 
Q 40.484375 56 46.34375 49.84375 
Q 52.203125 43.703125 52.203125 31.203125 
" id="DejaVuSans-61"/>
      <path d="M 18.3125 70.21875 
L 18.3125 54.6875 
L 36.8125 54.6875 
L 36.8125 47.703125 
L 18.3125 47.703125 
L 18.3125 18.015625 
Q 18.3125 11.328125 20.140625 9.421875 
Q 21.96875 7.515625 27.59375 7.515625 
L 36.8125 7.515625 
L 36.8125 0 
L 27.59375 0 
Q 17.1875 0 13.234375 3.875 
Q 9.28125 7.765625 9.28125 18.015625 
L 9.28125 47.703125 
L 2.6875 47.703125 
L 2.6875 54.6875 
L 9.28125 54.6875 
L 9.28125 70.21875 
z
" id="DejaVuSans-74"/>
      <path d="M 9.421875 54.6875 
L 18.40625 54.6875 
L 18.40625 0 
L 9.421875 0 
z
M 9.421875 75.984375 
L 18.40625 75.984375 
L 18.40625 64.59375 
L 9.421875 64.59375 
z
" id="DejaVuSans-69"/>
      <path d="M 30.609375 48.390625 
Q 23.390625 48.390625 19.1875 42.75 
Q 14.984375 37.109375 14.984375 27.296875 
Q 14.984375 17.484375 19.15625 11.84375 
Q 23.34375 6.203125 30.609375 6.203125 
Q 37.796875 6.203125 41.984375 11.859375 
Q 46.1875 17.53125 46.1875 27.296875 
Q 46.1875 37.015625 41.984375 42.703125 
Q 37.796875 48.390625 30.609375 48.390625 
M 30.609375 56 
Q 42.328125 56 49.015625 48.375 
Q 55.71875 40.765625 55.71875 27.296875 
Q 55.71875 13.875 49.015625 6.21875 
Q 42.328125 -1.421875 30.609375 -1.421875 
Q 18.84375 -1.421875 12.171875 6.21875 
Q 5.515625 13.875 5.515625 27.296875 
Q 5.515625 40.765625 12.171875 48.375 
Q 18.84375 56 30.609375 56 
" id="DejaVuSans-6f"/>
      <path d="M 44.28125 53.078125 
L 44.28125 44.578125 
Q 40.484375 46.53125 36.375 47.5 
Q 32.28125 48.484375 27.875 48.484375 
Q 21.1875 48.484375 17.84375 46.4375 
Q 14.5 44.390625 14.5 40.28125 
Q 14.5 37.15625 16.890625 35.375 
Q 19.28125 33.59375 26.515625 31.984375 
L 29.59375 31.296875 
Q 39.15625 29.25 43.1875 25.515625 
Q 47.21875 21.78125 47.21875 15.09375 
Q 47.21875 7.46875 41.1875 3.015625 
Q 35.15625 -1.421875 24.609375 -1.421875 
Q 20.21875 -1.421875 15.453125 -0.5625 
Q 10.6875 0.296875 5.421875 2 
L 5.421875 11.28125 
Q 10.40625 8.6875 15.234375 7.390625 
Q 20.0625 6.109375 24.8125 6.109375 
Q 31.15625 6.109375 34.5625 8.28125 
Q 37.984375 10.453125 37.984375 14.40625 
Q 37.984375 18.0625 35.515625 20.015625 
Q 33.0625 21.96875 24.703125 23.78125 
L 21.578125 24.515625 
Q 13.234375 26.265625 9.515625 29.90625 
Q 5.8125 33.546875 5.8125 39.890625 
Q 5.8125 47.609375 11.28125 51.796875 
Q 16.75 56 26.8125 56 
Q 31.78125 56 36.171875 55.265625 
Q 40.578125 54.546875 44.28125 53.078125 
" id="DejaVuSans-73"/>
     </defs>
     <g transform="translate(190.902344 280.276563)scale(0.1 -0.1)">
      <use xlink:href="#DejaVuSans-47"/>
      <use x="77.490234" xlink:href="#DejaVuSans-65"/>
      <use x="139.013672" xlink:href="#DejaVuSans-6e"/>
      <use x="202.392578" xlink:href="#DejaVuSans-65"/>
      <use x="263.916016" xlink:href="#DejaVuSans-72"/>
      <use x="305.029297" xlink:href="#DejaVuSans-61"/>
      <use x="366.308594" xlink:href="#DejaVuSans-74"/>
      <use x="405.517578" xlink:href="#DejaVuSans-69"/>
      <use x="433.300781" xlink:href="#DejaVuSans-6f"/>
      <use x="494.482422" xlink:href="#DejaVuSans-6e"/>
      <use x="557.861328" xlink:href="#DejaVuSans-73"/>
     </g>
    </g>
   </g>
   <g id="matplotlib.axis_2">
    <g id="ytick_1">
     <g id="line2d_6">
      <defs>
       <path d="M 0 0 
L -3.5 0 
" id="m2fdd77d718" style="stroke:#000000;stroke-width:0.8;"/>
      </defs>
      <g>
       <use style="stroke:#000000;stroke-width:0.8;" x="54" xlink:href="#m2fdd77d718" y="252"/>
      </g>
     </g>
     <g id="text_7">
      <!-- 0 -->
      <g transform="translate(40.6375 255.799219)scale(0.1 -0.1)">
       <use xlink:href="#DejaVuSans-30"/>
      </g>
     </g>
    </g>
    <g id="ytick_2">
     <g id="line2d_7">
      <g>
       <use style="stroke:#000000;stroke-width:0.8;" x="54" xlink:href="#m2fdd77d718" y="224.75188"/>
      </g>
     </g>
     <g id="text_8">
      <!-- 20 -->
      <g transform="translate(34.275 228.551098)scale(0.1 -0.1)">
       <use xlink:href="#DejaVuSans-32"/>
       <use x="63.623047" xlink:href="#DejaVuSans-30"/>
      </g>
     </g>
    </g>
    <g id="ytick_3">
     <g id="line2d_8">
      <g>
       <use style="stroke:#000000;stroke-width:0.8;" x="54" xlink:href="#m2fdd77d718" y="197.503759"/>
      </g>
     </g>
     <g id="text_9">
      <!-- 40 -->
      <g transform="translate(34.275 201.302978)scale(0.1 -0.1)">
       <use xlink:href="#DejaVuSans-34"/>
       <use x="63.623047" xlink:href="#DejaVuSans-30"/>
      </g>
     </g>
    </g>
    <g id="ytick_4">
     <g id="line2d_9">
      <g>
       <use style="stroke:#000000;stroke-width:0.8;" x="54" xlink:href="#m2fdd77d718" y="170.255639"/>
      </g>
     </g>
     <g id="text_10">
      <!-- 60 -->
      <g transform="translate(34.275 174.054858)scale(0.1 -0.1)">
       <use xlink:href="#DejaVuSans-36"/>
       <use x="63.623047" xlink:href="#DejaVuSans-30"/>
      </g>
     </g>
    </g>
    <g id="ytick_5">
     <g id="line2d_10">
      <g>
       <use style="stroke:#000000;stroke-width:0.8;" x="54" xlink:href="#m2fdd77d718" y="143.007519"/>
      </g>
     </g>
     <g id="text_11">
      <!-- 80 -->
      <g transform="translate(34.275 146.806738)scale(0.1 -0.1)">
       <use xlink:href="#DejaVuSans-38"/>
       <use x="63.623047" xlink:href="#DejaVuSans-30"/>
      </g>
     </g>
    </g>
    <g id="ytick_6">
     <g id="line2d_11">
      <g>
       <use style="stroke:#000000;stroke-width:0.8;" x="54" xlink:href="#m2fdd77d718" y="115.759398"/>
      </g>
     </g>
     <g id="text_12">
      <!-- 100 -->
      <defs>
       <path d="M 12.40625 8.296875 
L 28.515625 8.296875 
L 28.515625 63.921875 
L 10.984375 60.40625 
L 10.984375 69.390625 
L 28.421875 72.90625 
L 38.28125 72.90625 
L 38.28125 8.296875 
L 54.390625 8.296875 
L 54.390625 0 
L 12.40625 0 
z
" id="DejaVuSans-31"/>
      </defs>
      <g transform="translate(27.9125 119.558617)scale(0.1 -0.1)">
       <use xlink:href="#DejaVuSans-31"/>
       <use x="63.623047" xlink:href="#DejaVuSans-30"/>
       <use x="127.246094" xlink:href="#DejaVuSans-30"/>
      </g>
     </g>
    </g>
    <g id="ytick_7">
     <g id="line2d_12">
      <g>
       <use style="stroke:#000000;stroke-width:0.8;" x="54" xlink:href="#m2fdd77d718" y="88.511278"/>
      </g>
     </g>
     <g id="text_13">
      <!-- 120 -->
      <g transform="translate(27.9125 92.310497)scale(0.1 -0.1)">
       <use xlink:href="#DejaVuSans-31"/>
       <use x="63.623047" xlink:href="#DejaVuSans-32"/>
       <use x="127.246094" xlink:href="#DejaVuSans-30"/>
      </g>
     </g>
    </g>
    <g id="ytick_8">
     <g id="line2d_13">
      <g>
       <use style="stroke:#000000;stroke-width:0.8;" x="54" xlink:href="#m2fdd77d718" y="61.263158"/>
      </g>
     </g>
     <g id="text_14">
      <!-- 140 -->
      <g transform="translate(27.9125 65.062377)scale(0.1 -0.1)">
       <use xlink:href="#DejaVuSans-31"/>
       <use x="63.623047" xlink:href="#DejaVuSans-34"/>
       <use x="127.246094" xlink:href="#DejaVuSans-30"/>
      </g>
     </g>
    </g>
    <g id="text_15">
     <!-- Size per Species -->
     <defs>
      <path d="M 53.515625 70.515625 
L 53.515625 60.890625 
Q 47.90625 63.578125 42.921875 64.890625 
Q 37.9375 66.21875 33.296875 66.21875 
Q 25.25 66.21875 20.875 63.09375 
Q 16.5 59.96875 16.5 54.203125 
Q 16.5 49.359375 19.40625 46.890625 
Q 22.3125 44.4375 30.421875 42.921875 
L 36.375 41.703125 
Q 47.40625 39.59375 52.65625 34.296875 
Q 57.90625 29 57.90625 20.125 
Q 57.90625 9.515625 50.796875 4.046875 
Q 43.703125 -1.421875 29.984375 -1.421875 
Q 24.8125 -1.421875 18.96875 -0.25 
Q 13.140625 0.921875 6.890625 3.21875 
L 6.890625 13.375 
Q 12.890625 10.015625 18.65625 8.296875 
Q 24.421875 6.59375 29.984375 6.59375 
Q 38.421875 6.59375 43.015625 9.90625 
Q 47.609375 13.234375 47.609375 19.390625 
Q 47.609375 24.75 44.3125 27.78125 
Q 41.015625 30.8125 33.5 32.328125 
L 27.484375 33.5 
Q 16.453125 35.6875 11.515625 40.375 
Q 6.59375 45.0625 6.59375 53.421875 
Q 6.59375 63.09375 13.40625 68.65625 
Q 20.21875 74.21875 32.171875 74.21875 
Q 37.3125 74.21875 42.625 73.28125 
Q 47.953125 72.359375 53.515625 70.515625 
" id="DejaVuSans-53"/>
      <path d="M 5.515625 54.6875 
L 48.1875 54.6875 
L 48.1875 46.484375 
L 14.40625 7.171875 
L 48.1875 7.171875 
L 48.1875 0 
L 4.296875 0 
L 4.296875 8.203125 
L 38.09375 47.515625 
L 5.515625 47.515625 
z
" id="DejaVuSans-7a"/>
      <path id="DejaVuSans-20"/>
      <path d="M 18.109375 8.203125 
L 18.109375 -20.796875 
L 9.078125 -20.796875 
L 9.078125 54.6875 
L 18.109375 54.6875 
L 18.109375 46.390625 
Q 20.953125 51.265625 25.265625 53.625 
Q 29.59375 56 35.59375 56 
Q 45.5625 56 51.78125 48.09375 
Q 58.015625 40.1875 58.015625 27.296875 
Q 58.015625 14.40625 51.78125 6.484375 
Q 45.5625 -1.421875 35.59375 -1.421875 
Q 29.59375 -1.421875 25.265625 0.953125 
Q 20.953125 3.328125 18.109375 8.203125 
M 48.6875 27.296875 
Q 48.6875 37.203125 44.609375 42.84375 
Q 40.53125 48.484375 33.40625 48.484375 
Q 26.265625 48.484375 22.1875 42.84375 
Q 18.109375 37.203125 18.109375 27.296875 
Q 18.109375 17.390625 22.1875 11.75 
Q 26.265625 6.109375 33.40625 6.109375 
Q 40.53125 6.109375 44.609375 11.75 
Q 48.6875 17.390625 48.6875 27.296875 
" id="DejaVuSans-70"/>
      <path d="M 48.78125 52.59375 
L 48.78125 44.1875 
Q 44.96875 46.296875 41.140625 47.34375 
Q 37.3125 48.390625 33.40625 48.390625 
Q 24.65625 48.390625 19.8125 42.84375 
Q 14.984375 37.3125 14.984375 27.296875 
Q 14.984375 17.28125 19.8125 11.734375 
Q 24.65625 6.203125 33.40625 6.203125 
Q 37.3125 6.203125 41.140625 7.25 
Q 44.96875 8.296875 48.78125 10.40625 
L 48.78125 2.09375 
Q 45.015625 0.34375 40.984375 -0.53125 
Q 36.96875 -1.421875 32.421875 -1.421875 
Q 20.0625 -1.421875 12.78125 6.34375 
Q 5.515625 14.109375 5.515625 27.296875 
Q 5.515625 40.671875 12.859375 48.328125 
Q 20.21875 56 33.015625 56 
Q 37.15625 56 41.109375 55.140625 
Q 45.0625 54.296875 48.78125 52.59375 
" id="DejaVuSans-63"/>
     </defs>
     <g transform="translate(21.832812 184.272969)rotate(-90)scale(0.1 -0.1)">
      <use xlink:href="#DejaVuSans-53"/>
      <use x="63.476562" xlink:href="#DejaVuSans-69"/>
      <use x="91.259766" xlink:href="#DejaVuSans-7a"/>
      <use x="143.75" xlink:href="#DejaVuSans-65"/>
      <use x="205.273438" xlink:href="#DejaVuSans-20"/>
      <use x="237.060547" xlink:href="#DejaVuSans-70"/>
      <use x="300.537109" xlink:href="#DejaVuSans-65"/>
      <use x="362.060547" xlink:href="#DejaVuSans-72"/>
      <use x="403.173828" xlink:href="#DejaVuSans-20"/>
      <use x="434.960938" xlink:href="#DejaVuSans-53"/>
      <use x="498.4375" xlink:href="#DejaVuSans-70"/>
      <use x="561.914062" xlink:href="#DejaVuSans-65"/>
      <use x="623.4375" xlink:href="#DejaVuSans-63"/>
      <use x="678.417969" xlink:href="#DejaVuSans-69"/>
      <use x="706.201172" xlink:href="#DejaVuSans-65"/>
      <use x="767.724609" xlink:href="#DejaVuSans-73"/>
     </g>
    </g>
   </g>
   <g id="patch_3">
    <path d="M 54 252 
L 54 34.56 
" style="fill:none;stroke:#000000;stroke-linecap:square;stroke-linejoin:miter;stroke-width:0.8;"/>
   </g>
   <g id="patch_4">
    <path d="M 388.8 252 
L 388.8 34.56 
" style="fill:none;stroke:#000000;stroke-linecap:square;stroke-linejoin:miter;stroke-width:0.8;"/>
   </g>
   <g id="patch_5">
    <path d="M 54 252 
L 388.8 252 
" style="fill:none;stroke:#000000;stroke-linecap:square;stroke-linejoin:miter;stroke-width:0.8;"/>
   </g>
   <g id="patch_6">
    <path d="M 54 34.56 
L 388.8 34.56 
" style="fill:none;stroke:#000000;stroke-linecap:square;stroke-linejoin:miter;stroke-width:0.8;"/>
   </g>
   <g id="text_16">
    <!-- Speciation -->
    <g transform="translate(189.954375 28.56)scale(0.12 -0.12)">
     <use xlink:href="#DejaVuSans-53"/>
     <use x="63.476562" xlink:href="#DejaVuSans-70"/>
     <use x="126.953125" xlink:href="#DejaVuSans-65"/>
     <use x="188.476562" xlink:href="#DejaVuSans-63"/>
     <use x="243.457031" xlink:href="#DejaVuSans-69"/>
     <use x="271.240234" xlink:href="#DejaVuSans-61"/>
     <use x="332.519531" xlink:href="#DejaVuSans-74"/>
     <use x="371.728516" xlink:href="#DejaVuSans-69"/>
     <use x="399.511719" xlink:href="#DejaVuSans-6f"/>
     <use x="460.693359" xlink:href="#DejaVuSans-6e"/>
    </g>
   </g>
  </g>
 </g>
 <defs>
  <clipPath id="p3984cdb2f1">
   <rect height="217.44" width="334.8" x="54" y="34.56"/>
  </clipPath>
 </defs>
</svg>
