<?xml version="1.0" encoding="UTF-8" standalone="no"?>
<!DOCTYPE svg PUBLIC "-//W3C//DTD SVG 1.1//EN"
 "http://www.w3.org/Graphics/SVG/1.1/DTD/svg11.dtd">
<!-- Generated by graphviz version 2.38.0 (20140413.2041)
 -->
<!-- Title: %3 Pages: 1 -->
<svg width="108pt" height="170pt"
 viewBox="0.00 0.00 108.00 170.12" xmlns="http://www.w3.org/2000/svg" xmlns:xlink="http://www.w3.org/1999/xlink">
<g id="graph0" class="graph" transform="scale(1 1) rotate(0) translate(4 166.125)">
<title>%3</title>
<polygon fill="white" stroke="none" points="-4,4 -4,-166.125 104,-166.125 104,4 -4,4"/>
<!-- &#45;1 -->
<g id="node1" class="node"><title>&#45;1</title>
<polygon fill="lightgray" stroke="black" points="24,-162.125 0,-162.125 0,-144.125 24,-144.125 24,-162.125"/>
<text text-anchor="middle" x="12" y="-150.925" font-family="Times,serif" font-size="9.00">&#45;1</text>
</g>
<!-- 0 -->
<g id="node3" class="node"><title>0</title>
<ellipse fill="lightblue" stroke="black" cx="37" cy="-14.8492" rx="14.7" ry="14.7"/>
<text text-anchor="middle" x="37" y="-12.6492" font-family="Times,serif" font-size="9.00">0</text>
</g>
<!-- &#45;1&#45;&gt;0 -->
<g id="edge4" class="edge"><title>&#45;1&#45;&gt;0</title>
<path fill="none" stroke="green" stroke-width="0.21143" d="M9.77098,-143.834C5.95178,-128.216 -0.721431,-93.5032 7,-65.6985 10.0089,-54.8635 16.0743,-44.025 21.9688,-35.235"/>
<polygon fill="green" stroke="green" stroke-width="0.21143" points="24.955,-37.0757 27.9143,-26.9025 19.2568,-33.0098 24.955,-37.0757"/>
</g>
<!-- 877 -->
<g id="node4" class="node"><title>877</title>
<ellipse fill="white" stroke="black" cx="37" cy="-86.9117" rx="21.4286" ry="21.4286"/>
<text text-anchor="middle" x="37" y="-84.7117" font-family="Times,serif" font-size="9.00">877</text>
</g>
<!-- &#45;1&#45;&gt;877 -->
<g id="edge3" class="edge"><title>&#45;1&#45;&gt;877</title>
<path fill="none" stroke="green" stroke-width="0.646798" d="M15.1663,-143.992C17.8945,-136.985 22.0008,-126.438 25.9188,-116.374"/>
<polygon fill="green" stroke="green" stroke-width="0.646798" points="29.1998,-117.594 29.5663,-107.005 22.6767,-115.054 29.1998,-117.594"/>
</g>
<!-- &#45;2 -->
<g id="node2" class="node"><title>&#45;2</title>
<polygon fill="lightgray" stroke="black" points="100,-95.9117 76,-95.9117 76,-77.9117 100,-77.9117 100,-95.9117"/>
<text text-anchor="middle" x="88" y="-84.7117" font-family="Times,serif" font-size="9.00">&#45;2</text>
</g>
<!-- &#45;2&#45;&gt;0 -->
<g id="edge2" class="edge"><title>&#45;2&#45;&gt;0</title>
<path fill="none" stroke="red" stroke-width="0.734232" d="M82.1497,-77.8746C74.6961,-67.6352 61.5595,-49.5885 51.3714,-35.5923"/>
<polygon fill="red" stroke="red" stroke-width="0.734232" points="54.2009,-33.5322 45.486,-27.5071 48.5415,-37.6518 54.2009,-33.5322"/>
</g>
<!-- 877&#45;&gt;0 -->
<g id="edge1" class="edge"><title>877&#45;&gt;0</title>
<path fill="none" stroke="red" stroke-width="0.242103" d="M37,-65.6467C37,-57.6662 37,-48.4341 37,-40.1031"/>
<polygon fill="red" stroke="red" stroke-width="0.242103" points="40.5001,-39.8511 37,-29.8512 33.5001,-39.8512 40.5001,-39.8511"/>
</g>
</g>
</svg>
