<?xml version="1.0" encoding="utf-8" standalone="no"?>
<!DOCTYPE svg PUBLIC "-//W3C//DTD SVG 1.1//EN"
  "http://www.w3.org/Graphics/SVG/1.1/DTD/svg11.dtd">
<!-- Created with matplotlib (http://matplotlib.org/) -->
<svg height="288pt" version="1.1" viewBox="0 0 432 288" width="432pt" xmlns="http://www.w3.org/2000/svg" xmlns:xlink="http://www.w3.org/1999/xlink">
 <defs>
  <style type="text/css">
*{stroke-linecap:butt;stroke-linejoin:round;}
  </style>
 </defs>
 <g id="figure_1">
  <g id="patch_1">
   <path d="M 0 288 
L 432 288 
L 432 0 
L 0 0 
z
" style="fill:#ffffff;"/>
  </g>
  <g id="axes_1">
   <g id="patch_2">
    <path d="M 54 252 
L 388.8 252 
L 388.8 34.56 
L 54 34.56 
z
" style="fill:#ffffff;"/>
   </g>
   <g id="matplotlib.axis_1">
    <g id="xtick_1">
     <g id="line2d_1">
      <path clip-path="url(#pcb106d3c91)" d="M 69.218182 252 
L 69.218182 34.56 
" style="fill:none;stroke:#b0b0b0;stroke-linecap:square;stroke-width:0.8;"/>
     </g>
     <g id="line2d_2">
      <defs>
       <path d="M 0 0 
L 0 3.5 
" id="m63c7228cc0" style="stroke:#000000;stroke-width:0.8;"/>
      </defs>
      <g>
       <use style="stroke:#000000;stroke-width:0.8;" x="69.218182" xlink:href="#m63c7228cc0" y="252"/>
      </g>
     </g>
     <g id="text_1">
      <!-- 0 -->
      <defs>
       <path d="M 31.78125 66.40625 
Q 24.171875 66.40625 20.328125 58.90625 
Q 16.5 51.421875 16.5 36.375 
Q 16.5 21.390625 20.328125 13.890625 
Q 24.171875 6.390625 31.78125 6.390625 
Q 39.453125 6.390625 43.28125 13.890625 
Q 47.125 21.390625 47.125 36.375 
Q 47.125 51.421875 43.28125 58.90625 
Q 39.453125 66.40625 31.78125 66.40625 
M 31.78125 74.21875 
Q 44.046875 74.21875 50.515625 64.515625 
Q 56.984375 54.828125 56.984375 36.375 
Q 56.984375 17.96875 50.515625 8.265625 
Q 44.046875 -1.421875 31.78125 -1.421875 
Q 19.53125 -1.421875 13.0625 8.265625 
Q 6.59375 17.96875 6.59375 36.375 
Q 6.59375 54.828125 13.0625 64.515625 
Q 19.53125 74.21875 31.78125 74.21875 
" id="DejaVuSans-30"/>
      </defs>
      <g transform="translate(66.036932 266.598437)scale(0.1 -0.1)">
       <use xlink:href="#DejaVuSans-30"/>
      </g>
     </g>
    </g>
    <g id="xtick_2">
     <g id="line2d_3">
      <path clip-path="url(#pcb106d3c91)" d="M 120.115111 252 
L 120.115111 34.56 
" style="fill:none;stroke:#b0b0b0;stroke-linecap:square;stroke-width:0.8;"/>
     </g>
     <g id="line2d_4">
      <g>
       <use style="stroke:#000000;stroke-width:0.8;" x="120.115111" xlink:href="#m63c7228cc0" y="252"/>
      </g>
     </g>
     <g id="text_2">
      <!-- 50 -->
      <defs>
       <path d="M 10.796875 72.90625 
L 49.515625 72.90625 
L 49.515625 64.59375 
L 19.828125 64.59375 
L 19.828125 46.734375 
Q 21.96875 47.46875 24.109375 47.828125 
Q 26.265625 48.1875 28.421875 48.1875 
Q 40.625 48.1875 47.75 41.5 
Q 54.890625 34.8125 54.890625 23.390625 
Q 54.890625 11.625 47.5625 5.09375 
Q 40.234375 -1.421875 26.90625 -1.421875 
Q 22.3125 -1.421875 17.546875 -0.640625 
Q 12.796875 0.140625 7.71875 1.703125 
L 7.71875 11.625 
Q 12.109375 9.234375 16.796875 8.0625 
Q 21.484375 6.890625 26.703125 6.890625 
Q 35.15625 6.890625 40.078125 11.328125 
Q 45.015625 15.765625 45.015625 23.390625 
Q 45.015625 31 40.078125 35.4375 
Q 35.15625 39.890625 26.703125 39.890625 
Q 22.75 39.890625 18.8125 39.015625 
Q 14.890625 38.140625 10.796875 36.28125 
z
" id="DejaVuSans-35"/>
      </defs>
      <g transform="translate(113.752611 266.598437)scale(0.1 -0.1)">
       <use xlink:href="#DejaVuSans-35"/>
       <use x="63.623047" xlink:href="#DejaVuSans-30"/>
      </g>
     </g>
    </g>
    <g id="xtick_3">
     <g id="line2d_5">
      <path clip-path="url(#pcb106d3c91)" d="M 171.01204 252 
L 171.01204 34.56 
" style="fill:none;stroke:#b0b0b0;stroke-linecap:square;stroke-width:0.8;"/>
     </g>
     <g id="line2d_6">
      <g>
       <use style="stroke:#000000;stroke-width:0.8;" x="171.01204" xlink:href="#m63c7228cc0" y="252"/>
      </g>
     </g>
     <g id="text_3">
      <!-- 100 -->
      <defs>
       <path d="M 12.40625 8.296875 
L 28.515625 8.296875 
L 28.515625 63.921875 
L 10.984375 60.40625 
L 10.984375 69.390625 
L 28.421875 72.90625 
L 38.28125 72.90625 
L 38.28125 8.296875 
L 54.390625 8.296875 
L 54.390625 0 
L 12.40625 0 
z
" id="DejaVuSans-31"/>
      </defs>
      <g transform="translate(161.46829 266.598437)scale(0.1 -0.1)">
       <use xlink:href="#DejaVuSans-31"/>
       <use x="63.623047" xlink:href="#DejaVuSans-30"/>
       <use x="127.246094" xlink:href="#DejaVuSans-30"/>
      </g>
     </g>
    </g>
    <g id="xtick_4">
     <g id="line2d_7">
      <path clip-path="url(#pcb106d3c91)" d="M 221.908969 252 
L 221.908969 34.56 
" style="fill:none;stroke:#b0b0b0;stroke-linecap:square;stroke-width:0.8;"/>
     </g>
     <g id="line2d_8">
      <g>
       <use style="stroke:#000000;stroke-width:0.8;" x="221.908969" xlink:href="#m63c7228cc0" y="252"/>
      </g>
     </g>
     <g id="text_4">
      <!-- 150 -->
      <g transform="translate(212.365219 266.598437)scale(0.1 -0.1)">
       <use xlink:href="#DejaVuSans-31"/>
       <use x="63.623047" xlink:href="#DejaVuSans-35"/>
       <use x="127.246094" xlink:href="#DejaVuSans-30"/>
      </g>
     </g>
    </g>
    <g id="xtick_5">
     <g id="line2d_9">
      <path clip-path="url(#pcb106d3c91)" d="M 272.805898 252 
L 272.805898 34.56 
" style="fill:none;stroke:#b0b0b0;stroke-linecap:square;stroke-width:0.8;"/>
     </g>
     <g id="line2d_10">
      <g>
       <use style="stroke:#000000;stroke-width:0.8;" x="272.805898" xlink:href="#m63c7228cc0" y="252"/>
      </g>
     </g>
     <g id="text_5">
      <!-- 200 -->
      <defs>
       <path d="M 19.1875 8.296875 
L 53.609375 8.296875 
L 53.609375 0 
L 7.328125 0 
L 7.328125 8.296875 
Q 12.9375 14.109375 22.625 23.890625 
Q 32.328125 33.6875 34.8125 36.53125 
Q 39.546875 41.84375 41.421875 45.53125 
Q 43.3125 49.21875 43.3125 52.78125 
Q 43.3125 58.59375 39.234375 62.25 
Q 35.15625 65.921875 28.609375 65.921875 
Q 23.96875 65.921875 18.8125 64.3125 
Q 13.671875 62.703125 7.8125 59.421875 
L 7.8125 69.390625 
Q 13.765625 71.78125 18.9375 73 
Q 24.125 74.21875 28.421875 74.21875 
Q 39.75 74.21875 46.484375 68.546875 
Q 53.21875 62.890625 53.21875 53.421875 
Q 53.21875 48.921875 51.53125 44.890625 
Q 49.859375 40.875 45.40625 35.40625 
Q 44.1875 33.984375 37.640625 27.21875 
Q 31.109375 20.453125 19.1875 8.296875 
" id="DejaVuSans-32"/>
      </defs>
      <g transform="translate(263.262148 266.598437)scale(0.1 -0.1)">
       <use xlink:href="#DejaVuSans-32"/>
       <use x="63.623047" xlink:href="#DejaVuSans-30"/>
       <use x="127.246094" xlink:href="#DejaVuSans-30"/>
      </g>
     </g>
    </g>
    <g id="xtick_6">
     <g id="line2d_11">
      <path clip-path="url(#pcb106d3c91)" d="M 323.702828 252 
L 323.702828 34.56 
" style="fill:none;stroke:#b0b0b0;stroke-linecap:square;stroke-width:0.8;"/>
     </g>
     <g id="line2d_12">
      <g>
       <use style="stroke:#000000;stroke-width:0.8;" x="323.702828" xlink:href="#m63c7228cc0" y="252"/>
      </g>
     </g>
     <g id="text_6">
      <!-- 250 -->
      <g transform="translate(314.159078 266.598437)scale(0.1 -0.1)">
       <use xlink:href="#DejaVuSans-32"/>
       <use x="63.623047" xlink:href="#DejaVuSans-35"/>
       <use x="127.246094" xlink:href="#DejaVuSans-30"/>
      </g>
     </g>
    </g>
    <g id="xtick_7">
     <g id="line2d_13">
      <path clip-path="url(#pcb106d3c91)" d="M 374.599757 252 
L 374.599757 34.56 
" style="fill:none;stroke:#b0b0b0;stroke-linecap:square;stroke-width:0.8;"/>
     </g>
     <g id="line2d_14">
      <g>
       <use style="stroke:#000000;stroke-width:0.8;" x="374.599757" xlink:href="#m63c7228cc0" y="252"/>
      </g>
     </g>
     <g id="text_7">
      <!-- 300 -->
      <defs>
       <path d="M 40.578125 39.3125 
Q 47.65625 37.796875 51.625 33 
Q 55.609375 28.21875 55.609375 21.1875 
Q 55.609375 10.40625 48.1875 4.484375 
Q 40.765625 -1.421875 27.09375 -1.421875 
Q 22.515625 -1.421875 17.65625 -0.515625 
Q 12.796875 0.390625 7.625 2.203125 
L 7.625 11.71875 
Q 11.71875 9.328125 16.59375 8.109375 
Q 21.484375 6.890625 26.8125 6.890625 
Q 36.078125 6.890625 40.9375 10.546875 
Q 45.796875 14.203125 45.796875 21.1875 
Q 45.796875 27.640625 41.28125 31.265625 
Q 36.765625 34.90625 28.71875 34.90625 
L 20.21875 34.90625 
L 20.21875 43.015625 
L 29.109375 43.015625 
Q 36.375 43.015625 40.234375 45.921875 
Q 44.09375 48.828125 44.09375 54.296875 
Q 44.09375 59.90625 40.109375 62.90625 
Q 36.140625 65.921875 28.71875 65.921875 
Q 24.65625 65.921875 20.015625 65.03125 
Q 15.375 64.15625 9.8125 62.3125 
L 9.8125 71.09375 
Q 15.4375 72.65625 20.34375 73.4375 
Q 25.25 74.21875 29.59375 74.21875 
Q 40.828125 74.21875 47.359375 69.109375 
Q 53.90625 64.015625 53.90625 55.328125 
Q 53.90625 49.265625 50.4375 45.09375 
Q 46.96875 40.921875 40.578125 39.3125 
" id="DejaVuSans-33"/>
      </defs>
      <g transform="translate(365.056007 266.598437)scale(0.1 -0.1)">
       <use xlink:href="#DejaVuSans-33"/>
       <use x="63.623047" xlink:href="#DejaVuSans-30"/>
       <use x="127.246094" xlink:href="#DejaVuSans-30"/>
      </g>
     </g>
    </g>
    <g id="text_8">
     <!-- Generations -->
     <defs>
      <path d="M 59.515625 10.40625 
L 59.515625 29.984375 
L 43.40625 29.984375 
L 43.40625 38.09375 
L 69.28125 38.09375 
L 69.28125 6.78125 
Q 63.578125 2.734375 56.6875 0.65625 
Q 49.8125 -1.421875 42 -1.421875 
Q 24.90625 -1.421875 15.25 8.5625 
Q 5.609375 18.5625 5.609375 36.375 
Q 5.609375 54.25 15.25 64.234375 
Q 24.90625 74.21875 42 74.21875 
Q 49.125 74.21875 55.546875 72.453125 
Q 61.96875 70.703125 67.390625 67.28125 
L 67.390625 56.78125 
Q 61.921875 61.421875 55.765625 63.765625 
Q 49.609375 66.109375 42.828125 66.109375 
Q 29.4375 66.109375 22.71875 58.640625 
Q 16.015625 51.171875 16.015625 36.375 
Q 16.015625 21.625 22.71875 14.15625 
Q 29.4375 6.6875 42.828125 6.6875 
Q 48.046875 6.6875 52.140625 7.59375 
Q 56.25 8.5 59.515625 10.40625 
" id="DejaVuSans-47"/>
      <path d="M 56.203125 29.59375 
L 56.203125 25.203125 
L 14.890625 25.203125 
Q 15.484375 15.921875 20.484375 11.0625 
Q 25.484375 6.203125 34.421875 6.203125 
Q 39.59375 6.203125 44.453125 7.46875 
Q 49.3125 8.734375 54.109375 11.28125 
L 54.109375 2.78125 
Q 49.265625 0.734375 44.1875 -0.34375 
Q 39.109375 -1.421875 33.890625 -1.421875 
Q 20.796875 -1.421875 13.15625 6.1875 
Q 5.515625 13.8125 5.515625 26.8125 
Q 5.515625 40.234375 12.765625 48.109375 
Q 20.015625 56 32.328125 56 
Q 43.359375 56 49.78125 48.890625 
Q 56.203125 41.796875 56.203125 29.59375 
M 47.21875 32.234375 
Q 47.125 39.59375 43.09375 43.984375 
Q 39.0625 48.390625 32.421875 48.390625 
Q 24.90625 48.390625 20.390625 44.140625 
Q 15.875 39.890625 15.1875 32.171875 
z
" id="DejaVuSans-65"/>
      <path d="M 54.890625 33.015625 
L 54.890625 0 
L 45.90625 0 
L 45.90625 32.71875 
Q 45.90625 40.484375 42.875 44.328125 
Q 39.84375 48.1875 33.796875 48.1875 
Q 26.515625 48.1875 22.3125 43.546875 
Q 18.109375 38.921875 18.109375 30.90625 
L 18.109375 0 
L 9.078125 0 
L 9.078125 54.6875 
L 18.109375 54.6875 
L 18.109375 46.1875 
Q 21.34375 51.125 25.703125 53.5625 
Q 30.078125 56 35.796875 56 
Q 45.21875 56 50.046875 50.171875 
Q 54.890625 44.34375 54.890625 33.015625 
" id="DejaVuSans-6e"/>
      <path d="M 41.109375 46.296875 
Q 39.59375 47.171875 37.8125 47.578125 
Q 36.03125 48 33.890625 48 
Q 26.265625 48 22.1875 43.046875 
Q 18.109375 38.09375 18.109375 28.8125 
L 18.109375 0 
L 9.078125 0 
L 9.078125 54.6875 
L 18.109375 54.6875 
L 18.109375 46.1875 
Q 20.953125 51.171875 25.484375 53.578125 
Q 30.03125 56 36.53125 56 
Q 37.453125 56 38.578125 55.875 
Q 39.703125 55.765625 41.0625 55.515625 
z
" id="DejaVuSans-72"/>
      <path d="M 34.28125 27.484375 
Q 23.390625 27.484375 19.1875 25 
Q 14.984375 22.515625 14.984375 16.5 
Q 14.984375 11.71875 18.140625 8.90625 
Q 21.296875 6.109375 26.703125 6.109375 
Q 34.1875 6.109375 38.703125 11.40625 
Q 43.21875 16.703125 43.21875 25.484375 
L 43.21875 27.484375 
z
M 52.203125 31.203125 
L 52.203125 0 
L 43.21875 0 
L 43.21875 8.296875 
Q 40.140625 3.328125 35.546875 0.953125 
Q 30.953125 -1.421875 24.3125 -1.421875 
Q 15.921875 -1.421875 10.953125 3.296875 
Q 6 8.015625 6 15.921875 
Q 6 25.140625 12.171875 29.828125 
Q 18.359375 34.515625 30.609375 34.515625 
L 43.21875 34.515625 
L 43.21875 35.40625 
Q 43.21875 41.609375 39.140625 45 
Q 35.0625 48.390625 27.6875 48.390625 
Q 23 48.390625 18.546875 47.265625 
Q 14.109375 46.140625 10.015625 43.890625 
L 10.015625 52.203125 
Q 14.9375 54.109375 19.578125 55.046875 
Q 24.21875 56 28.609375 56 
Q 40.484375 56 46.34375 49.84375 
Q 52.203125 43.703125 52.203125 31.203125 
" id="DejaVuSans-61"/>
      <path d="M 18.3125 70.21875 
L 18.3125 54.6875 
L 36.8125 54.6875 
L 36.8125 47.703125 
L 18.3125 47.703125 
L 18.3125 18.015625 
Q 18.3125 11.328125 20.140625 9.421875 
Q 21.96875 7.515625 27.59375 7.515625 
L 36.8125 7.515625 
L 36.8125 0 
L 27.59375 0 
Q 17.1875 0 13.234375 3.875 
Q 9.28125 7.765625 9.28125 18.015625 
L 9.28125 47.703125 
L 2.6875 47.703125 
L 2.6875 54.6875 
L 9.28125 54.6875 
L 9.28125 70.21875 
z
" id="DejaVuSans-74"/>
      <path d="M 9.421875 54.6875 
L 18.40625 54.6875 
L 18.40625 0 
L 9.421875 0 
z
M 9.421875 75.984375 
L 18.40625 75.984375 
L 18.40625 64.59375 
L 9.421875 64.59375 
z
" id="DejaVuSans-69"/>
      <path d="M 30.609375 48.390625 
Q 23.390625 48.390625 19.1875 42.75 
Q 14.984375 37.109375 14.984375 27.296875 
Q 14.984375 17.484375 19.15625 11.84375 
Q 23.34375 6.203125 30.609375 6.203125 
Q 37.796875 6.203125 41.984375 11.859375 
Q 46.1875 17.53125 46.1875 27.296875 
Q 46.1875 37.015625 41.984375 42.703125 
Q 37.796875 48.390625 30.609375 48.390625 
M 30.609375 56 
Q 42.328125 56 49.015625 48.375 
Q 55.71875 40.765625 55.71875 27.296875 
Q 55.71875 13.875 49.015625 6.21875 
Q 42.328125 -1.421875 30.609375 -1.421875 
Q 18.84375 -1.421875 12.171875 6.21875 
Q 5.515625 13.875 5.515625 27.296875 
Q 5.515625 40.765625 12.171875 48.375 
Q 18.84375 56 30.609375 56 
" id="DejaVuSans-6f"/>
      <path d="M 44.28125 53.078125 
L 44.28125 44.578125 
Q 40.484375 46.53125 36.375 47.5 
Q 32.28125 48.484375 27.875 48.484375 
Q 21.1875 48.484375 17.84375 46.4375 
Q 14.5 44.390625 14.5 40.28125 
Q 14.5 37.15625 16.890625 35.375 
Q 19.28125 33.59375 26.515625 31.984375 
L 29.59375 31.296875 
Q 39.15625 29.25 43.1875 25.515625 
Q 47.21875 21.78125 47.21875 15.09375 
Q 47.21875 7.46875 41.1875 3.015625 
Q 35.15625 -1.421875 24.609375 -1.421875 
Q 20.21875 -1.421875 15.453125 -0.5625 
Q 10.6875 0.296875 5.421875 2 
L 5.421875 11.28125 
Q 10.40625 8.6875 15.234375 7.390625 
Q 20.0625 6.109375 24.8125 6.109375 
Q 31.15625 6.109375 34.5625 8.28125 
Q 37.984375 10.453125 37.984375 14.40625 
Q 37.984375 18.0625 35.515625 20.015625 
Q 33.0625 21.96875 24.703125 23.78125 
L 21.578125 24.515625 
Q 13.234375 26.265625 9.515625 29.90625 
Q 5.8125 33.546875 5.8125 39.890625 
Q 5.8125 47.609375 11.28125 51.796875 
Q 16.75 56 26.8125 56 
Q 31.78125 56 36.171875 55.265625 
Q 40.578125 54.546875 44.28125 53.078125 
" id="DejaVuSans-73"/>
     </defs>
     <g transform="translate(190.902344 280.276563)scale(0.1 -0.1)">
      <use xlink:href="#DejaVuSans-47"/>
      <use x="77.490234" xlink:href="#DejaVuSans-65"/>
      <use x="139.013672" xlink:href="#DejaVuSans-6e"/>
      <use x="202.392578" xlink:href="#DejaVuSans-65"/>
      <use x="263.916016" xlink:href="#DejaVuSans-72"/>
      <use x="305.029297" xlink:href="#DejaVuSans-61"/>
      <use x="366.308594" xlink:href="#DejaVuSans-74"/>
      <use x="405.517578" xlink:href="#DejaVuSans-69"/>
      <use x="433.300781" xlink:href="#DejaVuSans-6f"/>
      <use x="494.482422" xlink:href="#DejaVuSans-6e"/>
      <use x="557.861328" xlink:href="#DejaVuSans-73"/>
     </g>
    </g>
   </g>
   <g id="matplotlib.axis_2">
    <g id="ytick_1">
     <g id="line2d_15">
      <path clip-path="url(#pcb106d3c91)" d="M 54 229.485215 
L 388.8 229.485215 
" style="fill:none;stroke:#b0b0b0;stroke-linecap:square;stroke-width:0.8;"/>
     </g>
     <g id="line2d_16">
      <defs>
       <path d="M 0 0 
L -3.5 0 
" id="m4107ba43a5" style="stroke:#000000;stroke-width:0.8;"/>
      </defs>
      <g>
       <use style="stroke:#000000;stroke-width:0.8;" x="54" xlink:href="#m4107ba43a5" y="229.485215"/>
      </g>
     </g>
     <g id="text_9">
      <!-- 10 -->
      <g transform="translate(34.275 233.284434)scale(0.1 -0.1)">
       <use xlink:href="#DejaVuSans-31"/>
       <use x="63.623047" xlink:href="#DejaVuSans-30"/>
      </g>
     </g>
    </g>
    <g id="ytick_2">
     <g id="line2d_17">
      <path clip-path="url(#pcb106d3c91)" d="M 54 197.02178 
L 388.8 197.02178 
" style="fill:none;stroke:#b0b0b0;stroke-linecap:square;stroke-width:0.8;"/>
     </g>
     <g id="line2d_18">
      <g>
       <use style="stroke:#000000;stroke-width:0.8;" x="54" xlink:href="#m4107ba43a5" y="197.02178"/>
      </g>
     </g>
     <g id="text_10">
      <!-- 20 -->
      <g transform="translate(34.275 200.820999)scale(0.1 -0.1)">
       <use xlink:href="#DejaVuSans-32"/>
       <use x="63.623047" xlink:href="#DejaVuSans-30"/>
      </g>
     </g>
    </g>
    <g id="ytick_3">
     <g id="line2d_19">
      <path clip-path="url(#pcb106d3c91)" d="M 54 164.558345 
L 388.8 164.558345 
" style="fill:none;stroke:#b0b0b0;stroke-linecap:square;stroke-width:0.8;"/>
     </g>
     <g id="line2d_20">
      <g>
       <use style="stroke:#000000;stroke-width:0.8;" x="54" xlink:href="#m4107ba43a5" y="164.558345"/>
      </g>
     </g>
     <g id="text_11">
      <!-- 30 -->
      <g transform="translate(34.275 168.357564)scale(0.1 -0.1)">
       <use xlink:href="#DejaVuSans-33"/>
       <use x="63.623047" xlink:href="#DejaVuSans-30"/>
      </g>
     </g>
    </g>
    <g id="ytick_4">
     <g id="line2d_21">
      <path clip-path="url(#pcb106d3c91)" d="M 54 132.09491 
L 388.8 132.09491 
" style="fill:none;stroke:#b0b0b0;stroke-linecap:square;stroke-width:0.8;"/>
     </g>
     <g id="line2d_22">
      <g>
       <use style="stroke:#000000;stroke-width:0.8;" x="54" xlink:href="#m4107ba43a5" y="132.09491"/>
      </g>
     </g>
     <g id="text_12">
      <!-- 40 -->
      <defs>
       <path d="M 37.796875 64.3125 
L 12.890625 25.390625 
L 37.796875 25.390625 
z
M 35.203125 72.90625 
L 47.609375 72.90625 
L 47.609375 25.390625 
L 58.015625 25.390625 
L 58.015625 17.1875 
L 47.609375 17.1875 
L 47.609375 0 
L 37.796875 0 
L 37.796875 17.1875 
L 4.890625 17.1875 
L 4.890625 26.703125 
z
" id="DejaVuSans-34"/>
      </defs>
      <g transform="translate(34.275 135.894129)scale(0.1 -0.1)">
       <use xlink:href="#DejaVuSans-34"/>
       <use x="63.623047" xlink:href="#DejaVuSans-30"/>
      </g>
     </g>
    </g>
    <g id="ytick_5">
     <g id="line2d_23">
      <path clip-path="url(#pcb106d3c91)" d="M 54 99.631476 
L 388.8 99.631476 
" style="fill:none;stroke:#b0b0b0;stroke-linecap:square;stroke-width:0.8;"/>
     </g>
     <g id="line2d_24">
      <g>
       <use style="stroke:#000000;stroke-width:0.8;" x="54" xlink:href="#m4107ba43a5" y="99.631476"/>
      </g>
     </g>
     <g id="text_13">
      <!-- 50 -->
      <g transform="translate(34.275 103.430694)scale(0.1 -0.1)">
       <use xlink:href="#DejaVuSans-35"/>
       <use x="63.623047" xlink:href="#DejaVuSans-30"/>
      </g>
     </g>
    </g>
    <g id="ytick_6">
     <g id="line2d_25">
      <path clip-path="url(#pcb106d3c91)" d="M 54 67.168041 
L 388.8 67.168041 
" style="fill:none;stroke:#b0b0b0;stroke-linecap:square;stroke-width:0.8;"/>
     </g>
     <g id="line2d_26">
      <g>
       <use style="stroke:#000000;stroke-width:0.8;" x="54" xlink:href="#m4107ba43a5" y="67.168041"/>
      </g>
     </g>
     <g id="text_14">
      <!-- 60 -->
      <defs>
       <path d="M 33.015625 40.375 
Q 26.375 40.375 22.484375 35.828125 
Q 18.609375 31.296875 18.609375 23.390625 
Q 18.609375 15.53125 22.484375 10.953125 
Q 26.375 6.390625 33.015625 6.390625 
Q 39.65625 6.390625 43.53125 10.953125 
Q 47.40625 15.53125 47.40625 23.390625 
Q 47.40625 31.296875 43.53125 35.828125 
Q 39.65625 40.375 33.015625 40.375 
M 52.59375 71.296875 
L 52.59375 62.3125 
Q 48.875 64.0625 45.09375 64.984375 
Q 41.3125 65.921875 37.59375 65.921875 
Q 27.828125 65.921875 22.671875 59.328125 
Q 17.53125 52.734375 16.796875 39.40625 
Q 19.671875 43.65625 24.015625 45.921875 
Q 28.375 48.1875 33.59375 48.1875 
Q 44.578125 48.1875 50.953125 41.515625 
Q 57.328125 34.859375 57.328125 23.390625 
Q 57.328125 12.15625 50.6875 5.359375 
Q 44.046875 -1.421875 33.015625 -1.421875 
Q 20.359375 -1.421875 13.671875 8.265625 
Q 6.984375 17.96875 6.984375 36.375 
Q 6.984375 53.65625 15.1875 63.9375 
Q 23.390625 74.21875 37.203125 74.21875 
Q 40.921875 74.21875 44.703125 73.484375 
Q 48.484375 72.75 52.59375 71.296875 
" id="DejaVuSans-36"/>
      </defs>
      <g transform="translate(34.275 70.96726)scale(0.1 -0.1)">
       <use xlink:href="#DejaVuSans-36"/>
       <use x="63.623047" xlink:href="#DejaVuSans-30"/>
      </g>
     </g>
    </g>
    <g id="ytick_7">
     <g id="line2d_27">
      <path clip-path="url(#pcb106d3c91)" d="M 54 34.704606 
L 388.8 34.704606 
" style="fill:none;stroke:#b0b0b0;stroke-linecap:square;stroke-width:0.8;"/>
     </g>
     <g id="line2d_28">
      <g>
       <use style="stroke:#000000;stroke-width:0.8;" x="54" xlink:href="#m4107ba43a5" y="34.704606"/>
      </g>
     </g>
     <g id="text_15">
      <!-- 70 -->
      <defs>
       <path d="M 8.203125 72.90625 
L 55.078125 72.90625 
L 55.078125 68.703125 
L 28.609375 0 
L 18.3125 0 
L 43.21875 64.59375 
L 8.203125 64.59375 
z
" id="DejaVuSans-37"/>
      </defs>
      <g transform="translate(34.275 38.503825)scale(0.1 -0.1)">
       <use xlink:href="#DejaVuSans-37"/>
       <use x="63.623047" xlink:href="#DejaVuSans-30"/>
      </g>
     </g>
    </g>
    <g id="text_16">
     <!-- Fitness -->
     <defs>
      <path d="M 9.8125 72.90625 
L 51.703125 72.90625 
L 51.703125 64.59375 
L 19.671875 64.59375 
L 19.671875 43.109375 
L 48.578125 43.109375 
L 48.578125 34.8125 
L 19.671875 34.8125 
L 19.671875 0 
L 9.8125 0 
z
" id="DejaVuSans-46"/>
     </defs>
     <g transform="translate(28.195312 160.954219)rotate(-90)scale(0.1 -0.1)">
      <use xlink:href="#DejaVuSans-46"/>
      <use x="57.410156" xlink:href="#DejaVuSans-69"/>
      <use x="85.193359" xlink:href="#DejaVuSans-74"/>
      <use x="124.402344" xlink:href="#DejaVuSans-6e"/>
      <use x="187.78125" xlink:href="#DejaVuSans-65"/>
      <use x="249.304688" xlink:href="#DejaVuSans-73"/>
      <use x="301.404297" xlink:href="#DejaVuSans-73"/>
     </g>
    </g>
   </g>
   <g id="line2d_29">
    <path clip-path="url(#pcb106d3c91)" d="M 69.218182 234.536525 
L 70.23612 234.497569 
L 71.254059 231.757655 
L 72.271998 225.187056 
L 73.289936 213.850825 
L 74.307875 208.409953 
L 75.325813 209.85133 
L 76.343752 208.903397 
L 77.36169 207.449035 
L 78.379629 208.682646 
L 79.397568 211.526443 
L 80.415506 208.578763 
L 81.433445 209.163105 
L 82.451383 205.86482 
L 83.469322 203.553423 
L 84.487261 202.852213 
L 85.505199 205.384361 
L 86.523138 205.631083 
L 87.541076 203.865072 
L 88.559015 204.059853 
L 89.576953 208.565778 
L 90.594892 204.683151 
L 91.612831 205.319434 
L 92.630769 202.982067 
L 93.648708 204.137765 
L 94.666646 201.800398 
L 95.684585 202.267871 
L 96.702524 201.995178 
L 97.720462 201.216056 
L 98.738401 201.605617 
L 100.774278 195.892053 
L 101.792216 198.541069 
L 102.810155 200.709626 
L 103.828094 196.736102 
L 104.846032 196.528336 
L 105.863971 197.424327 
L 106.881909 193.931261 
L 107.899848 195.45055 
L 108.917787 194.009173 
L 109.935725 198.307332 
L 110.953664 193.087212 
L 111.971602 192.947684 
L 112.989541 195.844819 
L 114.007479 194.892179 
L 115.025418 195.624947 
L 116.043357 195.515477 
L 117.061295 194.266915 
L 118.079234 195.702549 
L 119.097172 194.758393 
L 120.115111 196.578504 
L 121.13305 192.697651 
L 122.150988 194.385749 
L 123.168927 194.606501 
L 124.186865 196.68416 
L 125.204804 195.61936 
L 126.222742 193.230051 
L 127.240681 195.718028 
L 128.25862 193.71051 
L 129.276558 197.712769 
L 130.294497 193.658568 
L 132.330374 193.240898 
L 133.348313 197.060893 
L 134.366251 192.719397 
L 135.38419 199.553928 
L 137.420067 194.07173 
L 139.455944 196.297496 
L 140.473883 193.827171 
L 141.491821 194.616123 
L 142.50976 193.633731 
L 143.527698 195.586146 
L 144.545637 193.826966 
L 145.563576 194.965331 
L 146.581514 194.697398 
L 147.599453 196.788043 
L 148.617391 195.995936 
L 149.63533 194.557688 
L 150.653268 195.249872 
L 151.671207 195.164872 
L 152.689146 196.116425 
L 153.707084 199.983584 
L 154.725023 198.320318 
L 155.742961 193.501649 
L 156.7609 193.762503 
L 158.796777 198.034639 
L 159.814716 194.359778 
L 160.832654 193.996188 
L 161.850593 194.008242 
L 162.868531 199.065295 
L 163.88647 195.352977 
L 164.904409 195.022033 
L 165.922347 193.762451 
L 166.940286 194.401238 
L 167.958224 195.731065 
L 168.976163 193.489758 
L 169.994102 192.818347 
L 171.01204 192.749592 
L 172.029979 192.411972 
L 173.047917 194.035144 
L 174.065856 192.262201 
L 175.083794 191.964727 
L 176.101733 192.84049 
L 177.119672 194.583763 
L 178.13761 195.042933 
L 179.155549 191.925926 
L 180.173487 194.424705 
L 181.191426 194.203954 
L 182.209365 192.676077 
L 183.227303 192.766613 
L 184.245242 196.284563 
L 185.26318 192.740745 
L 186.281119 194.320822 
L 187.299057 195.398608 
L 188.316996 195.822328 
L 189.334935 194.33605 
L 190.352873 194.966635 
L 191.370812 193.840624 
L 192.38875 196.891926 
L 193.406689 198.891674 
L 194.424628 196.034892 
L 195.442566 198.677546 
L 196.460505 194.305716 
L 197.478443 197.57572 
L 198.496382 196.956853 
L 201.550198 194.609838 
L 202.568136 197.904786 
L 204.604013 193.283958 
L 205.621952 195.689615 
L 206.639891 194.432435 
L 207.657829 194.814267 
L 208.675768 194.719592 
L 209.693706 195.81414 
L 210.711645 192.585542 
L 211.729583 196.064691 
L 212.747522 197.476268 
L 213.765461 196.982824 
L 214.783399 193.337438 
L 215.801338 194.437691 
L 216.819276 194.74934 
L 217.837215 195.775184 
L 218.855154 193.736324 
L 219.873092 193.149635 
L 220.891031 194.359778 
L 221.908969 195.048003 
L 223.944846 196.642167 
L 224.962785 192.074353 
L 225.980724 196.87951 
L 226.998662 193.411846 
L 228.016601 195.658316 
L 229.034539 196.229672 
L 230.052478 193.240898 
L 232.088355 197.539126 
L 233.106294 196.659638 
L 234.124232 194.567544 
L 235.142171 195.190842 
L 236.160109 193.322759 
L 237.178048 196.090558 
L 238.195987 196.591542 
L 239.213925 195.313178 
L 240.231864 194.909701 
L 241.249802 195.086959 
L 242.267741 193.567671 
L 243.28568 195.476521 
L 245.321557 193.723907 
L 246.339495 194.74546 
L 247.357434 191.684791 
L 248.375372 192.645709 
L 249.393311 192.384147 
L 250.41125 193.543555 
L 251.429188 193.352001 
L 252.447127 196.752321 
L 253.465065 193.012352 
L 254.483004 195.327473 
L 255.500943 194.719592 
L 256.518881 193.400361 
L 257.53682 192.697599 
L 258.554758 195.82846 
L 259.572697 194.032065 
L 260.590635 195.424373 
L 261.608574 196.596664 
L 262.626513 192.701843 
L 263.644451 194.40887 
L 264.66239 194.761168 
L 265.680328 192.860792 
L 266.698267 192.960617 
L 267.716206 197.191951 
L 268.734144 195.301606 
L 269.752083 197.522205 
L 270.770021 193.96715 
L 271.78796 194.654924 
L 272.805898 193.240898 
L 273.823837 193.440496 
L 274.841776 193.890919 
L 275.859714 191.882832 
L 276.877653 195.313864 
L 277.895591 193.167556 
L 278.91353 194.94412 
L 279.931469 193.206356 
L 280.949407 194.49972 
L 281.967346 194.548376 
L 282.985284 193.249713 
L 284.003223 192.50287 
L 285.021161 190.826567 
L 286.0391 194.058848 
L 287.057039 191.314914 
L 288.074977 191.057268 
L 289.092916 191.976258 
L 290.110854 189.972947 
L 291.128793 188.821853 
L 292.146732 192.440971 
L 293.16467 190.967092 
L 294.182609 191.224738 
L 295.200547 190.918654 
L 296.218486 189.477278 
L 297.236424 189.047627 
L 298.254363 188.248923 
L 299.272302 186.071812 
L 300.29024 189.643727 
L 301.308179 185.89146 
L 303.344056 187.770343 
L 304.361995 188.828628 
L 305.379933 186.920608 
L 306.397872 188.330374 
L 307.41581 188.035901 
L 308.433749 188.065001 
L 309.451687 188.640782 
L 310.469626 189.962271 
L 311.487565 189.233174 
L 312.505503 187.321862 
L 313.523442 191.905543 
L 314.54138 188.783052 
L 315.559319 189.756154 
L 316.577258 187.295787 
L 317.595196 189.280499 
L 318.613135 189.438217 
L 319.631073 188.971904 
L 320.649012 190.217444 
L 321.66695 192.927998 
L 322.684889 189.347424 
L 323.702828 190.22923 
L 324.720766 189.853854 
L 325.738705 189.134078 
L 326.756643 192.302196 
L 327.774582 191.866587 
L 328.792521 189.516234 
L 329.810459 190.386254 
L 330.828398 190.165503 
L 331.846336 187.919033 
L 332.864275 192.126294 
L 333.882213 188.899403 
L 334.900152 193.633167 
L 336.936029 193.580656 
L 337.953968 190.827757 
L 338.971906 194.596801 
L 339.989845 192.589022 
L 341.007784 191.559058 
L 342.025722 192.515855 
L 343.043661 188.970848 
L 344.061599 188.899455 
L 345.079538 191.515982 
L 346.097476 188.931892 
L 347.115415 192.339803 
L 348.133354 191.515982 
L 349.151292 191.554938 
L 350.169231 190.996567 
L 351.187169 191.710762 
L 352.205108 191.684791 
L 353.223047 193.476773 
L 354.240985 191.473249 
L 355.258924 192.36567 
L 356.276862 189.825067 
L 357.294801 190.619991 
L 358.312739 192.853475 
L 359.330678 191.128819 
L 360.348617 191.321201 
L 361.366555 193.281992 
L 362.384494 191.282245 
L 363.402432 191.736733 
L 364.420371 189.087717 
L 365.43831 191.434448 
L 366.456248 194.44035 
L 367.474187 190.555064 
L 368.492125 192.067521 
L 369.510064 192.437943 
L 370.528002 189.905795 
L 371.545941 192.367384 
L 372.56388 190.477152 
L 373.581818 189.972947 
L 373.581818 189.972947 
" style="fill:none;stroke:#0000ff;stroke-linecap:square;stroke-width:1.5;"/>
   </g>
   <g id="line2d_30">
    <path clip-path="url(#pcb106d3c91)" d="M 69.218182 236.226072 
L 70.23612 237.611461 
L 71.254059 241.896439 
L 72.271998 242.116364 
L 73.289936 235.293936 
L 74.307875 231.776848 
L 76.343752 232.008698 
L 77.36169 230.755669 
L 78.379629 233.494892 
L 79.397568 235.028036 
L 80.415506 231.60502 
L 81.433445 232.164176 
L 82.451383 229.290697 
L 83.469322 227.603517 
L 84.487261 228.444105 
L 85.505199 229.977041 
L 86.523138 229.722997 
L 87.541076 228.348687 
L 88.559015 227.524377 
L 89.576953 233.423287 
L 90.594892 228.423312 
L 91.612831 228.61155 
L 92.630769 226.834431 
L 93.648708 229.660536 
L 94.666646 226.559852 
L 95.684585 226.016498 
L 96.702524 226.306146 
L 97.720462 223.787538 
L 98.738401 224.568594 
L 99.756339 222.311086 
L 100.774278 219.215827 
L 101.792216 220.637433 
L 102.810155 224.010482 
L 103.828094 220.621835 
L 104.846032 219.092851 
L 105.863971 221.934677 
L 106.881909 215.472333 
L 107.899848 217.925411 
L 108.917787 216.362038 
L 109.935725 222.17694 
L 110.953664 213.678105 
L 111.971602 218.038324 
L 112.989541 219.292177 
L 114.007479 215.879146 
L 115.025418 215.958874 
L 116.043357 217.317931 
L 117.061295 214.95368 
L 118.079234 217.579279 
L 119.097172 217.259975 
L 120.115111 218.293705 
L 121.13305 212.949677 
L 122.150988 216.093244 
L 123.168927 216.599002 
L 124.186865 219.212284 
L 125.204804 217.796751 
L 126.222742 214.811711 
L 127.240681 216.972735 
L 128.25862 216.443168 
L 129.276558 221.93265 
L 130.294497 215.263394 
L 131.312435 215.887109 
L 132.330374 217.201221 
L 133.348313 219.688206 
L 134.366251 214.722412 
L 135.38419 223.129535 
L 136.402128 220.469947 
L 137.420067 216.822712 
L 138.438005 218.992284 
L 139.455944 220.131586 
L 140.473883 217.739026 
L 141.491821 218.128 
L 142.50976 217.601773 
L 143.527698 218.839218 
L 144.545637 215.835179 
L 145.563576 217.333372 
L 146.581514 217.559435 
L 147.599453 220.9725 
L 148.617391 218.866453 
L 149.63533 218.487338 
L 150.653268 217.12053 
L 151.671207 217.842112 
L 152.689146 219.469106 
L 153.707084 223.269279 
L 154.725023 220.819141 
L 155.742961 215.650925 
L 156.7609 216.656258 
L 157.778839 220.475576 
L 158.796777 222.450651 
L 159.814716 216.519634 
L 160.832654 218.0453 
L 161.850593 217.160699 
L 162.868531 223.799358 
L 163.88647 217.695338 
L 164.904409 218.671047 
L 165.922347 217.687801 
L 166.940286 219.650395 
L 167.958224 218.576803 
L 168.976163 216.156643 
L 169.994102 215.769971 
L 171.01204 214.973213 
L 172.029979 214.003354 
L 173.047917 217.488397 
L 174.065856 213.951879 
L 175.083794 213.904091 
L 176.101733 216.166559 
L 177.119672 218.741391 
L 178.13761 219.019494 
L 179.155549 214.15392 
L 180.173487 217.11012 
L 181.191426 216.904828 
L 182.209365 215.047812 
L 183.227303 214.227921 
L 184.245242 219.972473 
L 185.26318 216.27434 
L 186.281119 216.730418 
L 187.299057 219.647295 
L 188.316996 217.891949 
L 189.334935 217.986413 
L 190.352873 217.938043 
L 191.370812 217.68643 
L 192.38875 219.741757 
L 193.406689 222.841731 
L 194.424628 218.812008 
L 195.442566 223.06852 
L 196.460505 217.699556 
L 197.478443 220.174323 
L 198.496382 219.579838 
L 199.51432 220.758728 
L 200.532259 220.908573 
L 201.550198 218.210018 
L 202.568136 222.700989 
L 203.586075 218.221611 
L 204.604013 214.769205 
L 205.621952 218.32862 
L 206.639891 217.274938 
L 207.657829 217.614971 
L 208.675768 218.241826 
L 209.693706 218.551901 
L 210.711645 216.416789 
L 211.729583 221.392257 
L 212.747522 221.539624 
L 213.765461 221.099432 
L 214.783399 217.47491 
L 215.801338 216.927702 
L 216.819276 217.878711 
L 217.837215 218.580266 
L 218.855154 216.516501 
L 219.873092 215.851443 
L 220.891031 217.110973 
L 221.908969 217.570782 
L 222.926908 217.85818 
L 223.944846 221.289502 
L 224.962785 215.540145 
L 225.980724 219.688305 
L 226.998662 216.681462 
L 228.016601 219.417381 
L 229.034539 221.395947 
L 230.052478 215.547283 
L 231.070417 219.240884 
L 232.088355 220.059953 
L 233.106294 219.900938 
L 234.124232 218.254835 
L 235.142171 218.479121 
L 236.160109 215.273801 
L 237.178048 218.661408 
L 238.195987 221.183326 
L 239.213925 216.581404 
L 240.231864 218.965534 
L 241.249802 218.90919 
L 242.267741 217.813294 
L 243.28568 218.893759 
L 244.303618 216.429217 
L 245.321557 217.006382 
L 246.339495 219.726174 
L 247.357434 214.595161 
L 248.375372 217.55828 
L 249.393311 215.698732 
L 250.41125 215.23286 
L 251.429188 216.605225 
L 252.447127 220.173828 
L 253.465065 217.192406 
L 254.483004 218.651505 
L 255.500943 217.68364 
L 256.518881 216.178883 
L 257.53682 216.267014 
L 258.554758 219.507815 
L 260.590635 218.212166 
L 261.608574 220.423094 
L 262.626513 216.161328 
L 263.644451 218.18775 
L 264.66239 219.387947 
L 265.680328 217.780488 
L 266.698267 217.444424 
L 267.716206 222.338289 
L 268.734144 220.181215 
L 269.752083 221.907167 
L 270.770021 216.909712 
L 271.78796 217.869744 
L 272.805898 217.933693 
L 273.823837 216.549331 
L 274.841776 217.244231 
L 275.859714 214.122386 
L 276.877653 218.93603 
L 277.895591 217.46805 
L 278.91353 217.673718 
L 279.931469 215.917164 
L 280.949407 219.026634 
L 281.967346 218.960034 
L 282.985284 215.952066 
L 284.003223 215.996695 
L 285.021161 215.334117 
L 286.0391 216.518617 
L 287.057039 213.888124 
L 288.074977 214.089072 
L 289.092916 215.304036 
L 290.110854 212.022765 
L 291.128793 209.445943 
L 292.146732 214.510945 
L 293.16467 213.056368 
L 294.182609 213.462152 
L 295.200547 212.744515 
L 296.218486 210.026151 
L 297.236424 210.984069 
L 298.254363 212.702487 
L 299.272302 206.387399 
L 300.29024 211.084657 
L 301.308179 207.537338 
L 302.326117 208.81773 
L 303.344056 208.900222 
L 304.361995 213.064176 
L 305.379933 209.556036 
L 306.397872 211.744449 
L 307.41581 210.021624 
L 308.433749 210.705944 
L 309.451687 210.028908 
L 310.469626 211.98984 
L 311.487565 208.951354 
L 312.505503 209.736813 
L 313.523442 215.375556 
L 314.54138 210.65771 
L 315.559319 210.99637 
L 316.577258 208.38573 
L 317.595196 211.455126 
L 318.613135 210.09122 
L 319.631073 210.513069 
L 320.649012 210.169859 
L 321.66695 215.647775 
L 322.684889 211.230646 
L 323.702828 212.589272 
L 324.720766 211.077279 
L 325.738705 209.857623 
L 326.756643 215.864837 
L 327.774582 214.502299 
L 328.792521 208.993931 
L 329.810459 212.387283 
L 330.828398 211.237112 
L 331.846336 207.968084 
L 332.864275 212.92569 
L 333.882213 209.966509 
L 334.900152 217.250481 
L 335.918091 215.35075 
L 336.936029 214.941596 
L 337.953968 212.698461 
L 338.971906 214.677288 
L 339.989845 213.891371 
L 341.007784 211.48814 
L 342.025722 215.620485 
L 343.043661 208.343007 
L 344.061599 211.058603 
L 345.079538 211.974536 
L 346.097476 209.574639 
L 347.115415 214.254274 
L 348.133354 213.81805 
L 349.151292 215.91942 
L 350.169231 213.970787 
L 352.205108 212.768852 
L 353.223047 216.133259 
L 354.240985 213.97929 
L 355.258924 212.542197 
L 356.276862 210.147778 
L 358.312739 214.754951 
L 359.330678 211.452793 
L 360.348617 211.671519 
L 361.366555 215.378338 
L 362.384494 212.081701 
L 363.402432 211.624294 
L 364.420371 209.499671 
L 365.43831 212.859255 
L 366.456248 217.076631 
L 367.474187 211.553646 
L 368.492125 214.035335 
L 369.510064 215.941617 
L 370.528002 213.100945 
L 371.545941 214.301529 
L 372.56388 213.295909 
L 373.581818 210.665177 
L 373.581818 210.665177 
" style="fill:none;stroke:#008000;stroke-dasharray:9.6,2.4,1.6,2.4;stroke-dashoffset:0;stroke-width:1.5;"/>
   </g>
   <g id="line2d_31">
    <path clip-path="url(#pcb106d3c91)" d="M 69.218182 232.846979 
L 70.23612 231.383678 
L 71.254059 221.618872 
L 72.271998 208.257749 
L 73.289936 192.407714 
L 74.307875 185.043059 
L 75.325813 187.757655 
L 76.343752 185.798096 
L 77.36169 184.142402 
L 78.379629 183.870399 
L 79.397568 188.02485 
L 80.415506 185.552506 
L 81.433445 186.162034 
L 82.451383 182.438942 
L 83.469322 179.503329 
L 84.487261 177.260321 
L 85.505199 180.791681 
L 86.523138 181.539169 
L 87.541076 179.381457 
L 88.559015 180.595329 
L 89.576953 183.708268 
L 90.594892 180.942989 
L 91.612831 182.027318 
L 92.630769 179.129702 
L 93.648708 178.614994 
L 94.666646 177.040943 
L 95.684585 178.519245 
L 96.702524 177.68421 
L 97.720462 178.644574 
L 98.738401 178.64264 
L 100.774278 172.568279 
L 101.792216 176.444705 
L 102.810155 177.40877 
L 103.828094 172.850369 
L 104.846032 173.963821 
L 105.863971 172.913977 
L 106.881909 172.390189 
L 107.899848 172.975688 
L 108.917787 171.656309 
L 109.935725 174.437725 
L 110.953664 172.496319 
L 111.971602 167.857043 
L 112.989541 172.397461 
L 115.025418 175.29102 
L 116.043357 173.713022 
L 117.061295 173.58015 
L 118.079234 173.825819 
L 119.097172 172.256812 
L 120.115111 174.863304 
L 121.13305 172.445625 
L 122.150988 172.678255 
L 123.168927 172.614 
L 124.186865 174.156037 
L 125.204804 173.441968 
L 126.222742 171.648391 
L 127.240681 174.463321 
L 128.25862 170.977852 
L 129.276558 173.492888 
L 130.294497 172.053743 
L 131.312435 170.936583 
L 132.330374 169.280575 
L 133.348313 174.43358 
L 134.366251 170.716382 
L 135.38419 175.978321 
L 136.402128 173.313906 
L 137.420067 171.320748 
L 138.438005 171.352256 
L 139.455944 172.463406 
L 140.473883 169.915317 
L 141.491821 171.104247 
L 142.50976 169.665689 
L 143.527698 172.333074 
L 144.545637 171.818752 
L 145.563576 172.597291 
L 146.581514 171.835361 
L 147.599453 172.603587 
L 148.617391 173.125418 
L 149.63533 170.628038 
L 150.653268 173.379214 
L 151.671207 172.487631 
L 152.689146 172.763745 
L 153.707084 176.697889 
L 154.725023 175.821494 
L 155.742961 171.352373 
L 156.7609 170.868748 
L 157.778839 171.36047 
L 158.796777 173.618628 
L 159.814716 172.199923 
L 160.832654 169.947076 
L 161.850593 170.855785 
L 162.868531 174.331232 
L 163.88647 173.010617 
L 165.922347 169.837102 
L 166.940286 169.152081 
L 167.958224 172.885327 
L 168.976163 170.822874 
L 169.994102 169.866723 
L 171.01204 170.525972 
L 172.029979 170.820591 
L 173.047917 170.581891 
L 174.065856 170.572522 
L 176.101733 169.51442 
L 177.119672 170.426135 
L 178.13761 171.066373 
L 179.155549 169.697933 
L 180.173487 171.739291 
L 181.191426 171.50308 
L 182.209365 170.304343 
L 183.227303 171.305305 
L 184.245242 172.596652 
L 185.26318 169.207151 
L 186.281119 171.911227 
L 187.299057 171.149922 
L 188.316996 173.752707 
L 189.334935 170.685687 
L 190.352873 171.995227 
L 191.370812 169.994818 
L 192.38875 174.042096 
L 193.406689 174.941617 
L 194.424628 173.257776 
L 195.442566 174.286572 
L 196.460505 170.911876 
L 197.478443 174.977116 
L 198.496382 174.333868 
L 199.51432 171.570763 
L 200.532259 169.810732 
L 201.550198 171.009658 
L 202.568136 173.108582 
L 203.586075 172.757401 
L 204.604013 171.798711 
L 205.621952 173.05061 
L 206.639891 171.589932 
L 207.657829 172.013562 
L 208.675768 171.197359 
L 209.693706 173.07638 
L 210.711645 168.754294 
L 211.729583 170.737124 
L 212.747522 173.412913 
L 213.765461 172.866216 
L 214.783399 169.199966 
L 215.801338 171.947679 
L 216.819276 171.619968 
L 217.837215 172.970102 
L 218.855154 170.956147 
L 219.873092 170.447828 
L 220.891031 171.608584 
L 221.908969 172.525225 
L 222.926908 173.969001 
L 223.944846 171.994833 
L 224.962785 168.60856 
L 225.980724 174.070715 
L 226.998662 170.14223 
L 228.016601 171.899251 
L 229.034539 171.063398 
L 230.052478 170.934514 
L 231.070417 171.621521 
L 232.088355 175.018298 
L 233.106294 173.418338 
L 234.124232 170.880254 
L 235.142171 171.902563 
L 236.160109 171.371717 
L 237.178048 173.519708 
L 238.195987 171.999758 
L 239.213925 174.044952 
L 240.231864 170.853869 
L 241.249802 171.264729 
L 242.267741 169.322048 
L 243.28568 172.059283 
L 244.303618 172.621959 
L 245.321557 170.441432 
L 246.339495 169.764745 
L 248.375372 167.733138 
L 249.393311 169.069561 
L 250.41125 171.85425 
L 251.429188 170.098776 
L 252.447127 173.330813 
L 253.465065 168.832298 
L 254.483004 172.003441 
L 255.500943 171.755545 
L 256.518881 170.621839 
L 257.53682 169.128184 
L 258.554758 172.149105 
L 259.572697 169.163824 
L 260.590635 172.63658 
L 261.608574 172.770234 
L 262.626513 169.242358 
L 263.644451 170.629989 
L 264.66239 170.13439 
L 265.680328 167.941096 
L 266.698267 168.476811 
L 267.716206 172.045614 
L 268.734144 170.421997 
L 269.752083 173.137242 
L 270.770021 171.024588 
L 271.78796 171.440104 
L 272.805898 168.548103 
L 273.823837 170.331662 
L 274.841776 170.537607 
L 275.859714 169.643277 
L 276.877653 171.691699 
L 277.895591 168.867061 
L 278.91353 172.214522 
L 279.931469 170.495549 
L 280.949407 169.972806 
L 281.967346 170.136718 
L 282.985284 170.54736 
L 284.003223 169.009045 
L 285.021161 166.319016 
L 286.0391 171.599078 
L 287.057039 168.741705 
L 288.074977 168.025464 
L 289.092916 168.648481 
L 290.110854 167.923128 
L 291.128793 168.197763 
L 292.146732 170.370998 
L 293.16467 168.877816 
L 295.200547 169.092794 
L 296.218486 168.928405 
L 297.236424 167.111185 
L 298.254363 163.79536 
L 299.272302 165.756225 
L 300.29024 168.202796 
L 301.308179 164.245581 
L 302.326117 164.79068 
L 303.344056 166.640464 
L 304.361995 164.593079 
L 305.379933 164.285179 
L 306.397872 164.9163 
L 307.41581 166.050179 
L 308.433749 165.424058 
L 309.451687 167.252656 
L 310.469626 167.934702 
L 311.487565 169.514994 
L 312.505503 164.906912 
L 313.523442 168.435529 
L 314.54138 166.908394 
L 315.559319 168.515939 
L 316.577258 166.205844 
L 317.595196 167.105873 
L 318.613135 168.785213 
L 319.631073 167.430739 
L 320.649012 170.265029 
L 321.66695 170.20822 
L 322.684889 167.464202 
L 323.702828 167.869188 
L 324.720766 168.630429 
L 325.738705 168.410533 
L 326.756643 168.739556 
L 327.774582 169.230875 
L 328.792521 170.038537 
L 329.810459 168.385225 
L 330.828398 169.093893 
L 331.846336 167.869981 
L 332.864275 171.326899 
L 333.882213 167.832297 
L 335.918091 171.939373 
L 336.936029 172.219716 
L 337.953968 168.957052 
L 338.971906 174.516313 
L 339.989845 171.286673 
L 341.007784 171.629975 
L 342.025722 169.411226 
L 343.043661 169.59869 
L 344.061599 166.740306 
L 345.079538 171.057427 
L 346.097476 168.289146 
L 347.115415 170.425332 
L 348.133354 169.213913 
L 349.151292 167.190455 
L 350.169231 168.022346 
L 351.187169 170.095013 
L 352.205108 170.60073 
L 353.223047 170.820287 
L 354.240985 168.967207 
L 355.258924 172.189143 
L 356.276862 169.502356 
L 357.294801 168.902167 
L 358.312739 170.951999 
L 359.330678 170.804846 
L 361.366555 171.185647 
L 362.384494 170.482789 
L 363.402432 171.849172 
L 364.420371 168.675762 
L 365.43831 170.009641 
L 366.456248 171.80407 
L 367.474187 169.556482 
L 368.492125 170.099707 
L 369.510064 168.934269 
L 370.528002 166.710646 
L 371.545941 170.433239 
L 372.56388 167.658395 
L 373.581818 169.280716 
L 373.581818 169.280716 
" style="fill:none;stroke:#008000;stroke-dasharray:9.6,2.4,1.6,2.4;stroke-dashoffset:0;stroke-width:1.5;"/>
   </g>
   <g id="line2d_32">
    <path clip-path="url(#pcb106d3c91)" d="M 69.218182 229.485215 
L 70.23612 193.775437 
L 71.254059 164.558345 
L 72.271998 164.558345 
L 73.289936 132.09491 
L 74.307875 106.124163 
L 75.325813 141.833941 
L 76.343752 154.819315 
L 77.36169 112.61685 
L 78.379629 132.09491 
L 79.397568 141.833941 
L 80.415506 148.326628 
L 81.433445 141.833941 
L 82.451383 138.587597 
L 83.469322 141.833941 
L 84.487261 135.341254 
L 85.505199 119.109536 
L 86.523138 148.326628 
L 87.541076 154.819315 
L 88.559015 138.587597 
L 89.576953 112.61685 
L 90.594892 125.602223 
L 91.612831 135.341254 
L 92.630769 128.848567 
L 93.648708 132.09491 
L 94.666646 122.35588 
L 95.684585 132.09491 
L 96.702524 119.109536 
L 97.720462 138.587597 
L 98.738401 122.35588 
L 99.756339 128.848567 
L 100.774278 138.587597 
L 101.792216 145.080284 
L 102.810155 141.833941 
L 103.828094 135.341254 
L 104.846032 148.326628 
L 105.863971 125.602223 
L 106.881909 125.602223 
L 107.899848 132.09491 
L 108.917787 86.646102 
L 109.935725 109.370506 
L 110.953664 138.587597 
L 111.971602 44.443636 
L 112.989541 132.09491 
L 114.007479 102.877819 
L 115.025418 138.587597 
L 116.043357 132.09491 
L 117.061295 132.09491 
L 118.079234 128.848567 
L 119.097172 122.35588 
L 120.115111 148.326628 
L 121.13305 138.587597 
L 122.150988 132.09491 
L 123.168927 96.385132 
L 125.204804 122.35588 
L 126.222742 128.848567 
L 127.240681 141.833941 
L 128.25862 119.109536 
L 129.276558 122.35588 
L 130.294497 145.080284 
L 131.312435 112.61685 
L 132.330374 135.341254 
L 133.348313 138.587597 
L 134.366251 128.848567 
L 135.38419 135.341254 
L 136.402128 122.35588 
L 137.420067 141.833941 
L 138.438005 125.602223 
L 139.455944 128.848567 
L 140.473883 128.848567 
L 141.491821 112.61685 
L 142.50976 102.877819 
L 143.527698 128.848567 
L 144.545637 145.080284 
L 145.563576 125.602223 
L 146.581514 135.341254 
L 147.599453 106.124163 
L 148.617391 135.341254 
L 149.63533 122.35588 
L 150.653268 141.833941 
L 151.671207 128.848567 
L 152.689146 132.09491 
L 153.707084 151.572971 
L 154.725023 145.080284 
L 155.742961 125.602223 
L 156.7609 128.848567 
L 157.778839 135.341254 
L 158.796777 125.602223 
L 159.814716 135.341254 
L 160.832654 135.341254 
L 161.850593 132.09491 
L 162.868531 141.833941 
L 163.88647 138.587597 
L 164.904409 102.877819 
L 165.922347 135.341254 
L 166.940286 122.35588 
L 167.958224 138.587597 
L 168.976163 132.09491 
L 169.994102 132.09491 
L 171.01204 125.602223 
L 172.029979 138.587597 
L 173.047917 89.892445 
L 174.065856 145.080284 
L 175.083794 125.602223 
L 177.119672 119.109536 
L 178.13761 132.09491 
L 179.155549 135.341254 
L 180.173487 145.080284 
L 181.191426 132.09491 
L 182.209365 128.848567 
L 183.227303 138.587597 
L 184.245242 128.848567 
L 185.26318 128.848567 
L 186.281119 122.35588 
L 187.299057 119.109536 
L 188.316996 135.341254 
L 189.334935 125.602223 
L 190.352873 125.602223 
L 191.370812 128.848567 
L 192.38875 141.833941 
L 193.406689 148.326628 
L 194.424628 135.341254 
L 195.442566 135.341254 
L 196.460505 128.848567 
L 197.478443 138.587597 
L 198.496382 141.833941 
L 199.51432 106.124163 
L 200.532259 96.385132 
L 201.550198 115.863193 
L 202.568136 115.863193 
L 203.586075 122.35588 
L 204.604013 122.35588 
L 205.621952 132.09491 
L 206.639891 122.35588 
L 207.657829 99.631476 
L 208.675768 112.61685 
L 209.693706 141.833941 
L 210.711645 132.09491 
L 211.729583 115.863193 
L 212.747522 122.35588 
L 214.783399 115.863193 
L 215.801338 138.587597 
L 216.819276 138.587597 
L 219.873092 128.848567 
L 220.891031 109.370506 
L 221.908969 70.414384 
L 222.926908 145.080284 
L 223.944846 119.109536 
L 224.962785 128.848567 
L 225.980724 141.833941 
L 226.998662 138.587597 
L 228.016601 138.587597 
L 229.034539 122.35588 
L 230.052478 132.09491 
L 231.070417 128.848567 
L 232.088355 132.09491 
L 233.106294 145.080284 
L 234.124232 115.863193 
L 235.142171 145.080284 
L 236.160109 132.09491 
L 237.178048 138.587597 
L 238.195987 115.863193 
L 239.213925 128.848567 
L 240.231864 135.341254 
L 241.249802 115.863193 
L 242.267741 138.587597 
L 243.28568 125.602223 
L 244.303618 145.080284 
L 245.321557 128.848567 
L 246.339495 106.124163 
L 247.357434 122.35588 
L 248.375372 122.35588 
L 249.393311 138.587597 
L 250.41125 145.080284 
L 251.429188 109.370506 
L 252.447127 145.080284 
L 253.465065 128.848567 
L 254.483004 106.124163 
L 255.500943 125.602223 
L 256.518881 115.863193 
L 257.53682 128.848567 
L 258.554758 135.341254 
L 259.572697 132.09491 
L 260.590635 141.833941 
L 261.608574 132.09491 
L 262.626513 135.341254 
L 263.644451 125.602223 
L 264.66239 125.602223 
L 265.680328 96.385132 
L 266.698267 125.602223 
L 267.716206 86.646102 
L 268.734144 135.341254 
L 269.752083 138.587597 
L 270.770021 128.848567 
L 271.78796 128.848567 
L 272.805898 115.863193 
L 273.823837 135.341254 
L 274.841776 122.35588 
L 275.859714 106.124163 
L 276.877653 128.848567 
L 277.895591 109.370506 
L 278.91353 138.587597 
L 279.931469 135.341254 
L 280.949407 122.35588 
L 281.967346 122.35588 
L 282.985284 125.602223 
L 284.003223 119.109536 
L 285.021161 109.370506 
L 286.0391 141.833941 
L 288.074977 122.35588 
L 289.092916 128.848567 
L 290.110854 122.35588 
L 291.128793 96.385132 
L 292.146732 135.341254 
L 293.16467 122.35588 
L 294.182609 135.341254 
L 295.200547 141.833941 
L 296.218486 115.863193 
L 297.236424 125.602223 
L 298.254363 99.631476 
L 299.272302 128.848567 
L 300.29024 138.587597 
L 301.308179 122.35588 
L 302.326117 112.61685 
L 303.344056 138.587597 
L 304.361995 112.61685 
L 305.379933 128.848567 
L 306.397872 102.877819 
L 307.41581 128.848567 
L 308.433749 128.848567 
L 309.451687 138.587597 
L 310.469626 122.35588 
L 311.487565 125.602223 
L 312.505503 122.35588 
L 313.523442 125.602223 
L 314.54138 132.09491 
L 315.559319 125.602223 
L 316.577258 132.09491 
L 317.595196 125.602223 
L 320.649012 145.080284 
L 321.66695 141.833941 
L 322.684889 141.833941 
L 323.702828 119.109536 
L 324.720766 128.848567 
L 325.738705 109.370506 
L 326.756643 106.124163 
L 327.774582 135.341254 
L 328.792521 141.833941 
L 329.810459 125.602223 
L 330.828398 122.35588 
L 331.846336 128.848567 
L 332.864275 125.602223 
L 333.882213 119.109536 
L 335.918091 125.602223 
L 336.936029 138.587597 
L 337.953968 115.863193 
L 338.971906 148.326628 
L 339.989845 135.341254 
L 341.007784 138.587597 
L 342.025722 119.109536 
L 343.043661 135.341254 
L 344.061599 125.602223 
L 345.079538 141.833941 
L 346.097476 135.341254 
L 347.115415 132.09491 
L 348.133354 115.863193 
L 349.151292 96.385132 
L 350.169231 125.602223 
L 351.187169 128.848567 
L 352.205108 128.848567 
L 353.223047 122.35588 
L 354.240985 125.602223 
L 355.258924 135.341254 
L 356.276862 141.833941 
L 357.294801 128.848567 
L 358.312739 106.124163 
L 359.330678 132.09491 
L 360.348617 138.587597 
L 361.366555 122.35588 
L 362.384494 138.587597 
L 363.402432 138.587597 
L 364.420371 132.09491 
L 365.43831 141.833941 
L 366.456248 99.631476 
L 367.474187 132.09491 
L 368.492125 138.587597 
L 369.510064 122.35588 
L 370.528002 132.09491 
L 371.545941 135.341254 
L 372.56388 115.863193 
L 373.581818 141.833941 
L 373.581818 141.833941 
" style="fill:none;stroke:#ff0000;stroke-linecap:square;stroke-width:1.5;"/>
   </g>
   <g id="patch_3">
    <path d="M 54 252 
L 54 34.56 
" style="fill:none;stroke:#000000;stroke-linecap:square;stroke-linejoin:miter;stroke-width:0.8;"/>
   </g>
   <g id="patch_4">
    <path d="M 388.8 252 
L 388.8 34.56 
" style="fill:none;stroke:#000000;stroke-linecap:square;stroke-linejoin:miter;stroke-width:0.8;"/>
   </g>
   <g id="patch_5">
    <path d="M 54 252 
L 388.8 252 
" style="fill:none;stroke:#000000;stroke-linecap:square;stroke-linejoin:miter;stroke-width:0.8;"/>
   </g>
   <g id="patch_6">
    <path d="M 54 34.56 
L 388.8 34.56 
" style="fill:none;stroke:#000000;stroke-linecap:square;stroke-linejoin:miter;stroke-width:0.8;"/>
   </g>
   <g id="text_17">
    <!-- Population's average and best fitness -->
    <defs>
     <path d="M 19.671875 64.796875 
L 19.671875 37.40625 
L 32.078125 37.40625 
Q 38.96875 37.40625 42.71875 40.96875 
Q 46.484375 44.53125 46.484375 51.125 
Q 46.484375 57.671875 42.71875 61.234375 
Q 38.96875 64.796875 32.078125 64.796875 
z
M 9.8125 72.90625 
L 32.078125 72.90625 
Q 44.34375 72.90625 50.609375 67.359375 
Q 56.890625 61.8125 56.890625 51.125 
Q 56.890625 40.328125 50.609375 34.8125 
Q 44.34375 29.296875 32.078125 29.296875 
L 19.671875 29.296875 
L 19.671875 0 
L 9.8125 0 
z
" id="DejaVuSans-50"/>
     <path d="M 18.109375 8.203125 
L 18.109375 -20.796875 
L 9.078125 -20.796875 
L 9.078125 54.6875 
L 18.109375 54.6875 
L 18.109375 46.390625 
Q 20.953125 51.265625 25.265625 53.625 
Q 29.59375 56 35.59375 56 
Q 45.5625 56 51.78125 48.09375 
Q 58.015625 40.1875 58.015625 27.296875 
Q 58.015625 14.40625 51.78125 6.484375 
Q 45.5625 -1.421875 35.59375 -1.421875 
Q 29.59375 -1.421875 25.265625 0.953125 
Q 20.953125 3.328125 18.109375 8.203125 
M 48.6875 27.296875 
Q 48.6875 37.203125 44.609375 42.84375 
Q 40.53125 48.484375 33.40625 48.484375 
Q 26.265625 48.484375 22.1875 42.84375 
Q 18.109375 37.203125 18.109375 27.296875 
Q 18.109375 17.390625 22.1875 11.75 
Q 26.265625 6.109375 33.40625 6.109375 
Q 40.53125 6.109375 44.609375 11.75 
Q 48.6875 17.390625 48.6875 27.296875 
" id="DejaVuSans-70"/>
     <path d="M 8.5 21.578125 
L 8.5 54.6875 
L 17.484375 54.6875 
L 17.484375 21.921875 
Q 17.484375 14.15625 20.5 10.265625 
Q 23.53125 6.390625 29.59375 6.390625 
Q 36.859375 6.390625 41.078125 11.03125 
Q 45.3125 15.671875 45.3125 23.6875 
L 45.3125 54.6875 
L 54.296875 54.6875 
L 54.296875 0 
L 45.3125 0 
L 45.3125 8.40625 
Q 42.046875 3.421875 37.71875 1 
Q 33.40625 -1.421875 27.6875 -1.421875 
Q 18.265625 -1.421875 13.375 4.4375 
Q 8.5 10.296875 8.5 21.578125 
M 31.109375 56 
z
" id="DejaVuSans-75"/>
     <path d="M 9.421875 75.984375 
L 18.40625 75.984375 
L 18.40625 0 
L 9.421875 0 
z
" id="DejaVuSans-6c"/>
     <path d="M 17.921875 72.90625 
L 17.921875 45.796875 
L 9.625 45.796875 
L 9.625 72.90625 
z
" id="DejaVuSans-27"/>
     <path id="DejaVuSans-20"/>
     <path d="M 2.984375 54.6875 
L 12.5 54.6875 
L 29.59375 8.796875 
L 46.6875 54.6875 
L 56.203125 54.6875 
L 35.6875 0 
L 23.484375 0 
z
" id="DejaVuSans-76"/>
     <path d="M 45.40625 27.984375 
Q 45.40625 37.75 41.375 43.109375 
Q 37.359375 48.484375 30.078125 48.484375 
Q 22.859375 48.484375 18.828125 43.109375 
Q 14.796875 37.75 14.796875 27.984375 
Q 14.796875 18.265625 18.828125 12.890625 
Q 22.859375 7.515625 30.078125 7.515625 
Q 37.359375 7.515625 41.375 12.890625 
Q 45.40625 18.265625 45.40625 27.984375 
M 54.390625 6.78125 
Q 54.390625 -7.171875 48.1875 -13.984375 
Q 42 -20.796875 29.203125 -20.796875 
Q 24.46875 -20.796875 20.265625 -20.09375 
Q 16.0625 -19.390625 12.109375 -17.921875 
L 12.109375 -9.1875 
Q 16.0625 -11.328125 19.921875 -12.34375 
Q 23.78125 -13.375 27.78125 -13.375 
Q 36.625 -13.375 41.015625 -8.765625 
Q 45.40625 -4.15625 45.40625 5.171875 
L 45.40625 9.625 
Q 42.625 4.78125 38.28125 2.390625 
Q 33.9375 0 27.875 0 
Q 17.828125 0 11.671875 7.65625 
Q 5.515625 15.328125 5.515625 27.984375 
Q 5.515625 40.671875 11.671875 48.328125 
Q 17.828125 56 27.875 56 
Q 33.9375 56 38.28125 53.609375 
Q 42.625 51.21875 45.40625 46.390625 
L 45.40625 54.6875 
L 54.390625 54.6875 
z
" id="DejaVuSans-67"/>
     <path d="M 45.40625 46.390625 
L 45.40625 75.984375 
L 54.390625 75.984375 
L 54.390625 0 
L 45.40625 0 
L 45.40625 8.203125 
Q 42.578125 3.328125 38.25 0.953125 
Q 33.9375 -1.421875 27.875 -1.421875 
Q 17.96875 -1.421875 11.734375 6.484375 
Q 5.515625 14.40625 5.515625 27.296875 
Q 5.515625 40.1875 11.734375 48.09375 
Q 17.96875 56 27.875 56 
Q 33.9375 56 38.25 53.625 
Q 42.578125 51.265625 45.40625 46.390625 
M 14.796875 27.296875 
Q 14.796875 17.390625 18.875 11.75 
Q 22.953125 6.109375 30.078125 6.109375 
Q 37.203125 6.109375 41.296875 11.75 
Q 45.40625 17.390625 45.40625 27.296875 
Q 45.40625 37.203125 41.296875 42.84375 
Q 37.203125 48.484375 30.078125 48.484375 
Q 22.953125 48.484375 18.875 42.84375 
Q 14.796875 37.203125 14.796875 27.296875 
" id="DejaVuSans-64"/>
     <path d="M 48.6875 27.296875 
Q 48.6875 37.203125 44.609375 42.84375 
Q 40.53125 48.484375 33.40625 48.484375 
Q 26.265625 48.484375 22.1875 42.84375 
Q 18.109375 37.203125 18.109375 27.296875 
Q 18.109375 17.390625 22.1875 11.75 
Q 26.265625 6.109375 33.40625 6.109375 
Q 40.53125 6.109375 44.609375 11.75 
Q 48.6875 17.390625 48.6875 27.296875 
M 18.109375 46.390625 
Q 20.953125 51.265625 25.265625 53.625 
Q 29.59375 56 35.59375 56 
Q 45.5625 56 51.78125 48.09375 
Q 58.015625 40.1875 58.015625 27.296875 
Q 58.015625 14.40625 51.78125 6.484375 
Q 45.5625 -1.421875 35.59375 -1.421875 
Q 29.59375 -1.421875 25.265625 0.953125 
Q 20.953125 3.328125 18.109375 8.203125 
L 18.109375 0 
L 9.078125 0 
L 9.078125 75.984375 
L 18.109375 75.984375 
z
" id="DejaVuSans-62"/>
     <path d="M 37.109375 75.984375 
L 37.109375 68.5 
L 28.515625 68.5 
Q 23.6875 68.5 21.796875 66.546875 
Q 19.921875 64.59375 19.921875 59.515625 
L 19.921875 54.6875 
L 34.71875 54.6875 
L 34.71875 47.703125 
L 19.921875 47.703125 
L 19.921875 0 
L 10.890625 0 
L 10.890625 47.703125 
L 2.296875 47.703125 
L 2.296875 54.6875 
L 10.890625 54.6875 
L 10.890625 58.5 
Q 10.890625 67.625 15.140625 71.796875 
Q 19.390625 75.984375 28.609375 75.984375 
z
" id="DejaVuSans-66"/>
    </defs>
    <g transform="translate(108.555 28.56)scale(0.12 -0.12)">
     <use xlink:href="#DejaVuSans-50"/>
     <use x="60.255859" xlink:href="#DejaVuSans-6f"/>
     <use x="121.4375" xlink:href="#DejaVuSans-70"/>
     <use x="184.914062" xlink:href="#DejaVuSans-75"/>
     <use x="248.292969" xlink:href="#DejaVuSans-6c"/>
     <use x="276.076172" xlink:href="#DejaVuSans-61"/>
     <use x="337.355469" xlink:href="#DejaVuSans-74"/>
     <use x="376.564453" xlink:href="#DejaVuSans-69"/>
     <use x="404.347656" xlink:href="#DejaVuSans-6f"/>
     <use x="465.529297" xlink:href="#DejaVuSans-6e"/>
     <use x="528.908203" xlink:href="#DejaVuSans-27"/>
     <use x="556.398438" xlink:href="#DejaVuSans-73"/>
     <use x="608.498047" xlink:href="#DejaVuSans-20"/>
     <use x="640.285156" xlink:href="#DejaVuSans-61"/>
     <use x="701.564453" xlink:href="#DejaVuSans-76"/>
     <use x="760.744141" xlink:href="#DejaVuSans-65"/>
     <use x="822.267578" xlink:href="#DejaVuSans-72"/>
     <use x="863.380859" xlink:href="#DejaVuSans-61"/>
     <use x="924.660156" xlink:href="#DejaVuSans-67"/>
     <use x="988.136719" xlink:href="#DejaVuSans-65"/>
     <use x="1049.660156" xlink:href="#DejaVuSans-20"/>
     <use x="1081.447266" xlink:href="#DejaVuSans-61"/>
     <use x="1142.726562" xlink:href="#DejaVuSans-6e"/>
     <use x="1206.105469" xlink:href="#DejaVuSans-64"/>
     <use x="1269.582031" xlink:href="#DejaVuSans-20"/>
     <use x="1301.369141" xlink:href="#DejaVuSans-62"/>
     <use x="1364.845703" xlink:href="#DejaVuSans-65"/>
     <use x="1426.369141" xlink:href="#DejaVuSans-73"/>
     <use x="1478.46875" xlink:href="#DejaVuSans-74"/>
     <use x="1517.677734" xlink:href="#DejaVuSans-20"/>
     <use x="1549.464844" xlink:href="#DejaVuSans-66"/>
     <use x="1584.669922" xlink:href="#DejaVuSans-69"/>
     <use x="1612.453125" xlink:href="#DejaVuSans-74"/>
     <use x="1651.662109" xlink:href="#DejaVuSans-6e"/>
     <use x="1715.041016" xlink:href="#DejaVuSans-65"/>
     <use x="1776.564453" xlink:href="#DejaVuSans-73"/>
     <use x="1828.664062" xlink:href="#DejaVuSans-73"/>
    </g>
   </g>
   <g id="legend_1">
    <g id="patch_7">
     <path d="M 308.859375 101.2725 
L 381.8 101.2725 
Q 383.8 101.2725 383.8 99.2725 
L 383.8 41.56 
Q 383.8 39.56 381.8 39.56 
L 308.859375 39.56 
Q 306.859375 39.56 306.859375 41.56 
L 306.859375 99.2725 
Q 306.859375 101.2725 308.859375 101.2725 
z
" style="fill:#ffffff;opacity:0.8;stroke:#cccccc;stroke-linejoin:miter;"/>
    </g>
    <g id="line2d_33">
     <path d="M 310.859375 47.658437 
L 330.859375 47.658437 
" style="fill:none;stroke:#0000ff;stroke-linecap:square;stroke-width:1.5;"/>
    </g>
    <g id="line2d_34"/>
    <g id="text_18">
     <!-- average -->
     <g transform="translate(338.859375 51.158437)scale(0.1 -0.1)">
      <use xlink:href="#DejaVuSans-61"/>
      <use x="61.279297" xlink:href="#DejaVuSans-76"/>
      <use x="120.458984" xlink:href="#DejaVuSans-65"/>
      <use x="181.982422" xlink:href="#DejaVuSans-72"/>
      <use x="223.095703" xlink:href="#DejaVuSans-61"/>
      <use x="284.375" xlink:href="#DejaVuSans-67"/>
      <use x="347.851562" xlink:href="#DejaVuSans-65"/>
     </g>
    </g>
    <g id="line2d_35">
     <path d="M 310.859375 62.336562 
L 330.859375 62.336562 
" style="fill:none;stroke:#008000;stroke-dasharray:9.6,2.4,1.6,2.4;stroke-dashoffset:0;stroke-width:1.5;"/>
    </g>
    <g id="line2d_36"/>
    <g id="text_19">
     <!-- -1 sd -->
     <defs>
      <path d="M 4.890625 31.390625 
L 31.203125 31.390625 
L 31.203125 23.390625 
L 4.890625 23.390625 
z
" id="DejaVuSans-2d"/>
     </defs>
     <g transform="translate(338.859375 65.836562)scale(0.1 -0.1)">
      <use xlink:href="#DejaVuSans-2d"/>
      <use x="36.083984" xlink:href="#DejaVuSans-31"/>
      <use x="99.707031" xlink:href="#DejaVuSans-20"/>
      <use x="131.494141" xlink:href="#DejaVuSans-73"/>
      <use x="183.59375" xlink:href="#DejaVuSans-64"/>
     </g>
    </g>
    <g id="line2d_37">
     <path d="M 310.859375 77.014687 
L 330.859375 77.014687 
" style="fill:none;stroke:#008000;stroke-dasharray:9.6,2.4,1.6,2.4;stroke-dashoffset:0;stroke-width:1.5;"/>
    </g>
    <g id="line2d_38"/>
    <g id="text_20">
     <!-- +1 sd -->
     <defs>
      <path d="M 46 62.703125 
L 46 35.5 
L 73.1875 35.5 
L 73.1875 27.203125 
L 46 27.203125 
L 46 0 
L 37.796875 0 
L 37.796875 27.203125 
L 10.59375 27.203125 
L 10.59375 35.5 
L 37.796875 35.5 
L 37.796875 62.703125 
z
" id="DejaVuSans-2b"/>
     </defs>
     <g transform="translate(338.859375 80.514687)scale(0.1 -0.1)">
      <use xlink:href="#DejaVuSans-2b"/>
      <use x="83.789062" xlink:href="#DejaVuSans-31"/>
      <use x="147.412109" xlink:href="#DejaVuSans-20"/>
      <use x="179.199219" xlink:href="#DejaVuSans-73"/>
      <use x="231.298828" xlink:href="#DejaVuSans-64"/>
     </g>
    </g>
    <g id="line2d_39">
     <path d="M 310.859375 91.692813 
L 330.859375 91.692813 
" style="fill:none;stroke:#ff0000;stroke-linecap:square;stroke-width:1.5;"/>
    </g>
    <g id="line2d_40"/>
    <g id="text_21">
     <!-- best -->
     <g transform="translate(338.859375 95.192813)scale(0.1 -0.1)">
      <use xlink:href="#DejaVuSans-62"/>
      <use x="63.476562" xlink:href="#DejaVuSans-65"/>
      <use x="125" xlink:href="#DejaVuSans-73"/>
      <use x="177.099609" xlink:href="#DejaVuSans-74"/>
     </g>
    </g>
   </g>
  </g>
 </g>
 <defs>
  <clipPath id="pcb106d3c91">
   <rect height="217.44" width="334.8" x="54" y="34.56"/>
  </clipPath>
 </defs>
</svg>
