<?xml version="1.0" encoding="UTF-8" standalone="no"?>
<!DOCTYPE svg PUBLIC "-//W3C//DTD SVG 1.1//EN"
 "http://www.w3.org/Graphics/SVG/1.1/DTD/svg11.dtd">
<!-- Generated by graphviz version 2.38.0 (20140413.2041)
 -->
<!-- Title: %3 Pages: 1 -->
<svg width="154pt" height="136pt"
 viewBox="0.00 0.00 154.35 135.54" xmlns="http://www.w3.org/2000/svg" xmlns:xlink="http://www.w3.org/1999/xlink">
<g id="graph0" class="graph" transform="scale(1 1) rotate(0) translate(4 131.539)">
<title>%3</title>
<polygon fill="white" stroke="none" points="-4,4 -4,-131.539 150.347,-131.539 150.347,4 -4,4"/>
<!-- cPos -->
<g id="node1" class="node"><title>cPos</title>
<polygon fill="lightgray" stroke="black" points="120.77,-127.539 86.7696,-127.539 86.7696,-109.539 120.77,-109.539 120.77,-127.539"/>
<text text-anchor="middle" x="103.77" y="-116.339" font-family="Times,serif" font-size="9.00">cPos</text>
</g>
<!-- esq ou dir -->
<g id="node3" class="node"><title>esq ou dir</title>
<ellipse fill="lightblue" stroke="black" cx="36.7696" cy="-36.7696" rx="36.5405" ry="36.5405"/>
<text text-anchor="middle" x="36.7696" y="-34.5696" font-family="Times,serif" font-size="9.00">esq ou dir</text>
</g>
<!-- cPos&#45;&gt;esq ou dir -->
<g id="edge2" class="edge"><title>cPos&#45;&gt;esq ou dir</title>
<path fill="none" stroke="red" stroke-width="0.257757" d="M96.8517,-109.303C89.6409,-100.718 77.8441,-86.6725 66.6043,-73.2905"/>
<polygon fill="red" stroke="red" stroke-width="0.257757" points="69.2014,-70.9407 60.0897,-65.5344 63.8413,-75.4428 69.2014,-70.9407"/>
</g>
<!-- 10292 -->
<g id="node4" class="node"><title>10292</title>
<ellipse fill="white" stroke="black" cx="118.77" cy="-36.7696" rx="27.6545" ry="27.6545"/>
<text text-anchor="middle" x="118.77" y="-34.5696" font-family="Times,serif" font-size="9.00">10292</text>
</g>
<!-- cPos&#45;&gt;10292 -->
<g id="edge1" class="edge"><title>cPos&#45;&gt;10292</title>
<path fill="none" stroke="red" stroke-width="0.334286" stroke-dasharray="1,5" d="M105.318,-109.303C106.905,-100.865 109.483,-87.1532 111.96,-73.9804"/>
<polygon fill="red" stroke="red" stroke-width="0.334286" points="115.408,-74.583 113.817,-64.1084 108.529,-73.2894 115.408,-74.583"/>
</g>
<!-- cVel -->
<g id="node2" class="node"><title>cVel</title>
<polygon fill="lightgray" stroke="black" points="53.2696,-127.539 20.2696,-127.539 20.2696,-109.539 53.2696,-109.539 53.2696,-127.539"/>
<text text-anchor="middle" x="36.7696" y="-116.339" font-family="Times,serif" font-size="9.00">cVel</text>
</g>
<!-- cVel&#45;&gt;esq ou dir -->
<g id="edge3" class="edge"><title>cVel&#45;&gt;esq ou dir</title>
<path fill="none" stroke="red" stroke-width="3.61467" d="M36.7696,-109.303C36.7696,-102.98 36.7696,-93.6968 36.7696,-83.8977"/>
<polygon fill="red" stroke="red" stroke-width="3.61467" points="40.2696,-83.6018 36.7696,-73.6018 33.2696,-83.6019 40.2696,-83.6018"/>
</g>
</g>
</svg>
